<?xml version="1.0" encoding="utf-8"?>
<!-- Generator: Adobe Illustrator 21.1.0, SVG Export Plug-In . SVG Version: 6.00 Build 0)  -->
<svg version="1.1" id="Layer_1" xmlns="http://www.w3.org/2000/svg" xmlns:xlink="http://www.w3.org/1999/xlink" x="0px" y="0px"
	 viewBox="0 0 1406.3 1256" style="enable-background:new 0 0 1406.3 1256;" xml:space="preserve">
<style type="text/css">
	.st0{fill:#D9F9F3;}
	.st1{fill:#FFFFFF;}
	.st2{fill:#FFFFFF;stroke:#FFFFFF;stroke-width:10;stroke-miterlimit:10;}
	.st3{fill:#EB8C24;}
	.st4{fill:#FFE600;}
	.st5{fill:#89AA00;}
	.st6{fill:#D43732;}
	.st7{fill:#758900;}
	.st8{fill:#BBFF00;}
	.st9{fill:#F1CFB2;}
	.st10{fill:#090A08;}
	.st11{fill:#0E2B49;}
	.st12{fill:#FFFEFF;}
	.st13{fill:#CED7E0;}
	.st14{fill:#89AF00;}
	.st15{fill:#D0011B;}
	.st16{fill:#222D0C;}
</style>
<g>
	<path class="st0" d="M1349,670.2c0-207.6-168.3-375.8-375.8-375.8c-2.7,0-5.4,0-8.2,0.1C933.5,156.6,810.2,53.7,662.8,53.7
		c-154.3,0-282.3,112.8-306,260.5c-109.3,70.9-181.7,194-181.7,334C175.2,867.9,353.3,1046,573,1046h424.4v-0.8
		C1193.6,1032.7,1349,869.6,1349,670.2z"/>
	<circle class="st0" cx="205.4" cy="231.5" r="132.1"/>
	<circle class="st0" cx="94.2" cy="438.1" r="70.1"/>
</g>
<g>
	<g>
		<g>
			<g>
				<path class="st1" d="M335.4,677.1c-11.7,0-21.2-9.5-21.2-21.2V290.1c0-11.7,9.5-21.2,21.2-21.2h480.1c11.7,0,21.2,9.5,21.2,21.2
					v365.7c0,11.7-9.5,21.2-21.2,21.2L335.4,677.1L335.4,677.1z"/>
				<path class="st1" d="M815.6,273.9c9,0,16.2,7.3,16.2,16.2v365.7c0,9-7.3,16.2-16.2,16.2H335.4c-9,0-16.2-7.3-16.2-16.2V290.1
					c0-9,7.3-16.2,16.2-16.2H815.6 M815.6,263.9H335.4c-14.5,0-26.2,11.8-26.2,26.2v365.7c0,14.5,11.8,26.2,26.2,26.2h480.1
					c14.5,0,26.2-11.8,26.2-26.2V290.1C841.8,275.7,830,263.9,815.6,263.9L815.6,263.9z"/>
			</g>
		</g>
		<g>
			<path class="st2" d="M815.6,276.7c7.4,0,13.4,6,13.4,13.4v365.7c0,7.4-6,13.4-13.4,13.4H335.4c-7.4,0-13.4-6-13.4-13.4V290.1
				c0-7.4,6-13.4,13.4-13.4H815.6 M815.6,271.1H335.4c-10.5,0-19,8.5-19,19v365.7c0,10.5,8.5,19,19,19h480.1c10.5,0,19-8.5,19-19
				V290.1C834.6,279.6,826,271.1,815.6,271.1L815.6,271.1z"/>
		</g>
	</g>
	<g>
		<g>
			<path class="st1" d="M376,569.5c-10.2,0-18.4-8.3-18.4-18.4V417.2c0-10.2,8.3-18.4,18.4-18.4h399.1c10.2,0,18.4,8.3,18.4,18.4
				v133.9c0,10.2-8.3,18.4-18.4,18.4H376z"/>
			<path class="st1" d="M775,403.8c7.4,0,13.4,6,13.4,13.4v133.9c0,7.4-6,13.4-13.4,13.4H376c-7.4,0-13.4-6-13.4-13.4V417.2
				c0-7.4,6-13.4,13.4-13.4L775,403.8 M775,393.8H376c-12.9,0-23.4,10.5-23.4,23.4v133.9c0,12.9,10.5,23.4,23.4,23.4h399.1
				c12.9,0,23.4-10.5,23.4-23.4V417.2C798.5,404.3,788,393.8,775,393.8L775,393.8z"/>
		</g>
		<g>
			<path class="st1" d="M376,572.3c-11.7,0-21.2-9.5-21.2-21.2V417.2c0-11.7,9.5-21.2,21.2-21.2h399.1c11.7,0,21.2,9.5,21.2,21.2
				v133.9c0,11.7-9.5,21.2-21.2,21.2H376z M376,411.6c-3.1,0-5.6,2.6-5.6,5.6v133.9c0,3.1,2.6,5.6,5.6,5.6h399.1
				c3.1,0,5.6-2.6,5.6-5.6V417.2c0-3.1-2.6-5.6-5.6-5.6H376z"/>
			<path class="st1" d="M775,401c9,0,16.2,7.3,16.2,16.2v133.9c0,9-7.3,16.2-16.2,16.2H376c-9,0-16.2-7.3-16.2-16.2V417.2
				c0-9,7.3-16.2,16.2-16.2H775 M376,561.7h399.1c5.8,0,10.6-4.8,10.6-10.6V417.2c0-5.8-4.8-10.6-10.6-10.6H376
				c-5.8,0-10.6,4.8-10.6,10.6v133.9C365.3,556.9,370.1,561.7,376,561.7 M775,391H376c-14.5,0-26.2,11.8-26.2,26.2v133.9
				c0,14.5,11.8,26.2,26.2,26.2h399.1c14.5,0,26.2-11.8,26.2-26.2V417.2C801.3,402.7,789.5,391,775,391L775,391z M376,551.7
				c-0.3,0-0.6-0.3-0.6-0.6V417.2c0-0.3,0.3-0.6,0.6-0.6h399.1c0.3,0,0.6,0.3,0.6,0.6v133.9c0,0.3-0.3,0.6-0.6,0.6L376,551.7
				L376,551.7z"/>
		</g>
	</g>
	<g>
		<g>
			<g>
				<path class="st1" d="M1098.8,639.9c-15,0-26.7-13.8-31.2-36.8l-0.1-0.5V372.9l13,11.5c44.4,39.2,69.4,94.5,68.6,151.7
					c-0.3,21.6-4.2,42.7-11.4,62.7C1128.1,625.3,1114.3,639.9,1098.8,639.9z"/>
				<path class="st1" d="M1072.5,383.9l4.7,4.1c43.4,38.3,67.7,92.1,66.9,147.9c-0.3,20.9-4,41.5-11.1,61.1
					c-8.7,24.1-21.2,37.8-34.3,37.8c-12.4,0-22.3-12.3-26.3-32.8v-0.2L1072.5,383.9 M1062.5,361.8v22.1v218v0.2v1l0.2,1
					c5,25.6,18.5,40.9,36.1,40.9c17.8,0,33.3-15.8,43.7-44.4c7.4-20.5,11.3-42.2,11.7-64.4c0.8-58.7-24.8-115.4-70.3-155.5l-4.7-4.1
					L1062.5,361.8L1062.5,361.8z"/>
			</g>
		</g>
		<g>
			<g>
				<path class="st2" d="M1075.2,390.1c41.2,36.3,66.8,88.4,65.9,145.8c-0.3,21-4.1,41.3-11,60.2c-8.8,24.7-20.8,36-31.5,36
					c-10.4,0-19.7-10.9-23.6-30.6L1075.2,390.1 M1069.6,377.7v12.4v211.5v0.6l0.1,0.6c4.4,21.9,15.2,35,29.1,35
					c14.3,0,27.7-14.4,36.7-39.7c7.2-19.9,11-40.9,11.3-62.1c0.9-56.5-23.8-111.2-67.8-150L1069.6,377.7L1069.6,377.7z"/>
			</g>
		</g>
	</g>
	<g>
		<g>
			<path class="st1" d="M953.9,876.1c-33.5,0-64.7-7.2-88.1-20.3c-27.1-15.2-41.5-37.1-41.5-63.3c0-51.6,13.2-100.2,37.3-136.8
				c24.5-37.3,57.2-57.8,92.2-57.8s67.7,20.5,92.2,57.8c24,36.6,37.3,85.2,37.3,136.9c0,26.2-14.3,48.1-41.4,63.3
				C1018.6,868.9,987.3,876.1,953.9,876.1L953.9,876.1z"/>
			<path class="st1" d="M953.8,602.9c68.7,0,124.5,84.9,124.5,189.6c0,52.4-62.2,78.5-124.4,78.5c-62.3,0-124.5-26.2-124.5-78.5
				C829.3,687.9,885.1,602.9,953.8,602.9 M953.8,592.9c-18.8,0-36.9,5.6-53.9,16.5c-16,10.3-30.3,25-42.5,43.6
				c-24.6,37.4-38.1,87-38.1,139.6c0,14.6,4.2,28.1,12.5,40.1c7.4,10.7,18.1,20,31.5,27.6c24.1,13.5,56.2,20.9,90.5,20.9
				s66.4-7.4,90.4-20.9c13.5-7.6,24.1-16.8,31.5-27.6c8.3-11.9,12.5-25.4,12.5-40.1c0-52.6-13.5-102.2-38.1-139.6
				c-12.2-18.6-26.5-33.2-42.5-43.5C990.7,598.5,972.6,592.9,953.8,592.9L953.8,592.9z"/>
		</g>
		<g>
			<path class="st1" d="M953.8,878.9c-34.1,0-65.9-7.3-89.4-20.7c-28-15.7-42.8-38.4-42.8-65.7c0-52.1,13.4-101.3,37.8-138.3
				c25.1-38.1,58.6-59.1,94.5-59.1s69.5,21,94.5,59c24.4,37,37.8,86.2,37.8,138.4c0,27.2-14.8,50-42.9,65.7
				C1019.5,871.6,987.7,878.9,953.8,878.9z M953.8,610.7c-30.7,0-59.7,18.7-81.8,52.5c-22.5,34.5-34.9,80.5-34.9,129.3
				c0,27,19,43.2,34.9,52c21.4,12,50.5,18.6,81.9,18.6c31.3,0,60.3-6.6,81.7-18.6c15.9-9,34.9-25.3,34.9-52.1
				c-0.1-48.9-12.5-94.8-35-129.3C1013.5,629.4,984.5,610.7,953.8,610.7z"/>
			<path class="st1" d="M953.8,600.1c34.3,0,66.3,20.1,90.3,56.8c23.8,36.3,36.9,84.4,36.9,135.7c0,25.3-14,46.6-40.3,61.3
				c-22.9,12.9-53.8,20-87,20c-33.1,0-64-7.1-87-20c-26.4-14.8-40.3-36-40.3-61.3c0-51.2,13.1-99.3,36.9-135.6
				C887.5,620.4,919.7,600.1,953.8,600.1 M953.9,868.2c32.1,0,62-6.8,84.2-19.3c17.1-9.6,37.5-27.2,37.5-56.4
				c-0.1-103-54.7-186.8-121.8-186.8s-121.7,83.8-121.7,186.8c0,29.3,20.4,46.9,37.5,56.4C891.8,861.4,921.7,868.2,953.9,868.2
				 M953.8,590.1c-37.6,0-72.7,21.8-98.7,61.4c-24.9,37.8-38.6,87.9-38.6,141.1c0,14.6,4,28.1,11.9,40.1c7.7,11.7,19,21.8,33.5,30
				c24.3,13.7,56.9,21.3,91.9,21.3c34.7,0,67.4-7.6,91.9-21.3c14.5-8.1,25.8-18.2,33.5-30c7.9-12,11.9-25.5,11.9-40.1
				c0-53.2-13.7-103.3-38.6-141.2C1026.5,611.9,991.5,590.1,953.8,590.1L953.8,590.1z M953.9,858.2c-30.5,0-58.7-6.4-79.4-18
				c-14.8-8.2-32.4-23.1-32.4-47.7c0-47.9,12.1-92.8,34.1-126.6c21.1-32.4,48.7-50.3,77.6-50.3c28.9,0,56.5,17.8,77.6,50.3
				c22,33.7,34.1,78.7,34.2,126.6c0,19.6-10.9,35.6-32.4,47.7C1012.5,851.8,984.4,858.2,953.9,858.2L953.9,858.2z"/>
		</g>
	</g>
	<g>
		<g>
			<g>
				<path class="st1" d="M833.5,869.7c-7.3,0-14.2-3.4-19.1-9.2c-0.2,0-0.4,0-0.6,0H632.2c-14.2,0-25.8-12.6-25.8-28.1V721.1
					c0-15.5,11.6-28.1,25.8-28.1h181.6c14.2,0,25.8,12.6,25.8,28.1c0,7.2,2.4,13.9,6.9,18.8c4.2,4.8,9.8,7.4,15.7,7.4H909
					c14.2,0,25.8,12.6,25.8,28.1v66.3c0,15.5-11.6,28.1-25.8,28.1L833.5,869.7L833.5,869.7z"/>
				<path class="st1" d="M813.8,698.1c11.5,0,20.8,10.3,20.8,23.1c0,8.4,2.9,16.3,8.2,22.2c5.1,5.8,12.1,9.1,19.4,9.1
					c21.6,0,46.8,0,46.8,0c11.5,0,20.8,10.3,20.8,23.1v66.3c0,12.8-9.4,23.1-20.8,23.1h-75.5c-6.6,0-12.9-3.6-16.8-9.4
					c-1,0.1-2,0.2-2.9,0.2H632.2c-11.5,0-20.8-10.3-20.8-23.1V721.1c0-12.8,9.4-23.1,20.8-23.1L813.8,698.1 M813.8,688.1H632.2
					c-17,0-30.8,14.8-30.8,33.1v111.4c0,18.2,13.8,33.1,30.8,33.1h180c5.7,5.8,13.3,9.2,21.3,9.2H909c17,0,30.8-14.8,30.8-33.1
					v-66.3c0-18.2-13.8-33.1-30.8-33.1h-46.8c-4.4,0-8.6-2-11.9-5.7l0,0l0,0c-3.6-4-5.6-9.5-5.6-15.5
					C844.6,702.9,830.8,688.1,813.8,688.1L813.8,688.1z"/>
			</g>
		</g>
		<g>
			<path class="st2" d="M813.8,701c10,0,18,9.1,18,20.3l0,0c0,18.8,13.5,34,30.3,34l0,0c21.6,0,46.8,0,46.8,0c10,0,18,9.1,18,20.3
				v66.3c0,11.2-8.2,20.3-18,20.3h-75.5c-6.5,0-12.2-3.9-15.3-9.7c-1.3,0.3-2.8,0.6-4.3,0.6H632.2c-10,0-18-9.1-18-20.3V721.2
				c0-11.2,8.2-20.3,18-20.3L813.8,701 M813.8,695.4H632.2c-13,0-23.6,11.6-23.6,25.9v111.4c0,14.2,10.6,25.9,23.6,25.9h181.6
				c0.6,0,1.1,0,1.7-0.1c4.5,5.8,11.1,9.2,18,9.2H909c13,0,23.6-11.6,23.6-25.9v-66.3c0-14.2-10.6-25.9-23.6-25.9c0,0-25.2,0-46.8,0
				c-13.7,0-24.7-12.8-24.7-28.4C837.4,706.9,826.8,695.4,813.8,695.4L813.8,695.4z"/>
		</g>
	</g>
	<g>
		<g>
			<g>
				<path class="st1" d="M1135.5,771.6c-25.8,0-46.8-21-46.8-46.8v-0.9c0-25.8,21-46.8,46.8-46.8h0.9c25.8,0,46.8,21,46.8,46.8v0.9
					c0,25.8-21,46.8-46.8,46.8H1135.5z"/>
				<path class="st1" d="M1136.4,682.2c22.9,0,41.8,18.8,41.8,41.8v0.9c0,22.9-18.8,41.8-41.8,41.8h-0.9
					c-22.9,0-41.8-18.8-41.8-41.8V724c0-22.9,18.8-41.8,41.8-41.8H1136.4 M1136.4,672.2h-0.9c-28.5,0-51.8,23.2-51.8,51.8v0.9
					c0,28.5,23.2,51.8,51.8,51.8h0.9c28.5,0,51.8-23.2,51.8-51.8V724C1188.1,695.4,1164.9,672.2,1136.4,672.2L1136.4,672.2z"/>
			</g>
			<g>
				<path class="st1" d="M1135.5,774.4c-27.3,0-49.6-22.2-49.6-49.6v-0.9c0-27.3,22.2-49.6,49.6-49.6h0.9
					c27.3,0,49.6,22.2,49.6,49.6v0.9c0,27.3-22.2,49.6-49.6,49.6H1135.5z M1135.5,690c-18.7,0-34,15.2-34,34v0.9
					c0,18.7,15.2,34,34,34h0.9c18.7,0,34-15.2,34-34V724c0-18.7-15.2-34-34-34H1135.5z"/>
				<path class="st1" d="M1136.4,679.4c24.5,0,44.6,20,44.6,44.6v0.9c0,24.5-20,44.6-44.6,44.6h-0.9c-24.5,0-44.6-20-44.6-44.6V724
					c0-24.5,20-44.6,44.6-44.6H1136.4 M1135.5,763.8h0.9c21.5,0,39-17.5,39-39v-0.9c0-21.5-17.5-39-39-39h-0.9
					c-21.5,0-39,17.5-39,39v0.9C1096.5,746.3,1114,763.8,1135.5,763.8 M1136.4,669.4h-0.9c-30.1,0-54.6,24.5-54.6,54.6v0.9
					c0,30.1,24.5,54.6,54.6,54.6h0.9c30.1,0,54.6-24.5,54.6-54.6V724C1190.9,693.8,1166.5,669.4,1136.4,669.4L1136.4,669.4z
					 M1135.5,753.8c-16,0-29-13-29-29v-0.9c0-16,13-29,29-29h0.9c16,0,29,13,29,29v0.9c0,16-13,29-29,29H1135.5L1135.5,753.8z"/>
			</g>
		</g>
		<g>
			<g>
				<g>
					<path class="st1" d="M1131.2,781.2c-1.1,0-1.9-0.1-2.7-0.2l-0.4-0.1c-39.6-6.6-67.2-29.9-67.2-56.7c0-26.7,27.6-50,67.2-56.6
						c0.8-0.1,1.9-0.3,3.1-0.3c9.8,0,17.8,7.8,17.8,17.4v79c0,4.7-1.9,9.2-5.4,12.5C1140.3,779.4,1135.9,781.2,1131.2,781.2z"/>
					<path class="st1" d="M1131.2,672.3c7.1,0,12.8,5.6,12.8,12.4v79c0,3.4-1.3,6.5-3.8,8.8c-2.5,2.4-5.6,3.6-9,3.6
						c-0.8,0-1.5-0.1-2.2-0.2c-37.1-6.2-63-27.4-63-51.7c0-24.2,26-45.4,63-51.7C1129.7,672.4,1130.5,672.3,1131.2,672.3
						 M1131.2,662.3c-1.5,0-2.9,0.2-3.9,0.4c-19.9,3.4-37.2,10.7-50.1,21.3c-13.7,11.3-21.3,25.6-21.3,40.3
						c0,14.8,7.6,29.1,21.3,40.4c12.9,10.6,30.2,17.9,50.1,21.2h0.1h0.1h0.2c0.8,0.1,2,0.3,3.4,0.3c5.9,0,11.6-2.3,15.9-6.3
						c4.5-4.2,6.9-10,6.9-16.1v-79C1154,672.4,1143.8,662.3,1131.2,662.3L1131.2,662.3z"/>
				</g>
			</g>
			<g>
				<path class="st2" d="M1131.2,675.2c5.4,0,10,4.3,10,9.6v79c0,5.4-4.6,9.6-10,9.6c-0.6,0-1.1,0-1.7-0.1
					c-34.9-5.8-60.7-25.5-60.7-48.9s25.7-43.1,60.7-48.9C1130.1,675.3,1130.7,675.2,1131.2,675.2 M1131.2,669.6
					c-0.9,0-1.8,0.1-2.7,0.2c-18,3-34.4,9.7-46,19c-12.4,10-19.4,22.5-19.4,35.5s6.8,25.5,19.4,35.5c11.6,9.3,28,16,46,19
					c0.9,0.1,1.8,0.2,2.7,0.2c8.6,0,15.6-6.8,15.6-15.2v-79C1146.8,676.5,1139.9,669.6,1131.2,669.6L1131.2,669.6z"/>
			</g>
		</g>
		<g>
			<g>
				<g>
					<g>
						<path class="st1" d="M1023,763.6c-14.7,0-26.7-12-26.7-26.7s12-26.7,26.7-26.7h29.3c14.7,0,26.7,12,26.7,26.7
							s-12,26.7-26.7,26.7H1023z"/>
						<path class="st1" d="M1052.3,715.2c12,0,21.7,9.7,21.7,21.7s-9.7,21.7-21.7,21.7H1023c-12,0-21.7-9.7-21.7-21.7
							s9.7-21.7,21.7-21.7H1052.3 M1052.3,705.2H1023c-17.5,0-31.7,14.2-31.7,31.7s14.2,31.7,31.7,31.7h29.3
							c17.5,0,31.7-14.2,31.7-31.7S1069.8,705.2,1052.3,705.2L1052.3,705.2z"/>
					</g>
				</g>
				<g>
					<g>
						<path class="st2" d="M1052.3,718c10.4,0,18.9,8.5,18.9,18.9l0,0c0,10.4-8.5,18.9-18.9,18.9H1023c-10.4,0-18.9-8.5-18.9-18.9
							l0,0c0-10.4,8.5-18.9,18.9-18.9H1052.3 M1052.3,712.4H1023c-13.5,0-24.5,11-24.5,24.5s11,24.5,24.5,24.5h29.3
							c13.5,0,24.5-11,24.5-24.5S1065.9,712.4,1052.3,712.4L1052.3,712.4z"/>
					</g>
				</g>
			</g>
			<g>
				<g>
					<g>
						<path class="st1" d="M1101.5,873.4c-11.6,0-21.9-7.4-25.5-18.5l-45.6-139.4c-4.5-14,3.1-29.2,17.1-33.7
							c2.8-0.9,5.7-1.4,8.3-1.4c11.6,0,21.9,7.4,25.5,18.5l45.7,139.4c2.2,6.8,1.6,14.1-1.7,20.4c-3.3,6.4-8.8,11.1-15.4,13.3
							C1107.2,873,1104.5,873.4,1101.5,873.4z"/>
						<path class="st1" d="M1055.8,685.5c9.5,0,17.8,6,20.7,15l45.7,139.4c1.8,5.5,1.3,11.4-1.3,16.6s-7.2,9.1-12.6,10.9
							c-2.1,0.8-4.4,1.1-6.7,1.1c-9.4,0-17.8-6-20.7-15l-45.6-139.4c-3.7-11.4,2.6-23.7,13.9-27.4
							C1051.2,686,1053.6,685.5,1055.8,685.5 M1055.8,675.5c-3.1,0-6.4,0.5-9.7,1.6l0,0l0,0c-16.6,5.4-25.7,23.4-20.3,40l45.5,139.4
							c4.3,13.1,16.4,21.9,30.2,21.9c3.6,0,6.9-0.6,10-1.7c7.9-2.6,14.3-8.2,18.2-15.7s4.6-16.2,2-24.3L1086,697.3
							C1081.8,684.3,1069.6,675.5,1055.8,675.5L1055.8,675.5z"/>
					</g>
				</g>
				<g>
					<path class="st2" d="M1055.9,688.3c7.9,0,15.4,5,18,13.1l45.6,139.4c3.2,9.9-2.2,20.6-12.1,23.8c-1.9,0.7-3.9,0.9-5.8,0.9
						c-7.9,0-15.4-5-18-13.1L1038,713c-3.2-9.9,2.2-20.6,12.1-23.8C1052,688.7,1054,688.3,1055.9,688.3 M1055.9,682.7L1055.9,682.7
						c-2.6,0-5.1,0.4-7.6,1.2c-12.9,4.3-19.9,18.1-15.7,30.9l45.4,139.5c3.4,10.1,12.6,16.9,23.4,16.9c2.6,0,5.1-0.4,7.6-1.2
						c6.2-2,11.3-6.4,14.2-12.2c3-5.8,3.5-12.5,1.5-18.7l-45.6-139.4C1075.9,689.5,1066.5,682.7,1055.9,682.7L1055.9,682.7z"/>
				</g>
			</g>
		</g>
	</g>
	<g>
		<g>
			<path class="st1" d="M992.2,772c-19.4,0-35.1-15.8-35.1-35.1s15.8-35.1,35.1-35.1s35.1,15.8,35.1,35.1S1011.6,772,992.2,772z"/>
			<path class="st1" d="M992.2,706.8c16.6,0,30.1,13.5,30.1,30.1s-13.5,30.1-30.1,30.1s-30.1-13.5-30.1-30.1
				C962.1,720.3,975.6,706.8,992.2,706.8 M992.2,696.8c-22.1,0-40.1,18-40.1,40.1s18,40.1,40.1,40.1s40.1-18,40.1-40.1
				S1014.3,696.8,992.2,696.8L992.2,696.8z"/>
		</g>
		<g>
			<path class="st1" d="M992.2,774.8c-20.9,0-37.9-17-37.9-37.9s17-37.9,37.9-37.9s37.9,17,37.9,37.9
				C1030.1,757.8,1013.1,774.8,992.2,774.8z M992.2,714.6c-12.3,0-22.3,10-22.3,22.3s10,22.3,22.3,22.3s22.3-10,22.3-22.3
				S1004.5,714.6,992.2,714.6z"/>
			<path class="st1" d="M992.2,704c18.1,0,32.9,14.8,32.9,32.9c0,18.1-14.8,32.9-32.9,32.9c-18.1,0-32.9-14.8-32.9-32.9
				S974.1,704,992.2,704 M992.2,764.2c15.1,0,27.3-12.2,27.3-27.3s-12.2-27.3-27.3-27.3s-27.3,12.2-27.3,27.3
				S977.1,764.2,992.2,764.2 M992.2,694c-23.7,0-42.9,19.3-42.9,42.9s19.3,42.9,42.9,42.9c23.7,0,42.9-19.3,42.9-42.9
				C1035.1,713.2,1015.9,694,992.2,694L992.2,694z M992.2,754.2c-9.5,0-17.3-7.8-17.3-17.3s7.8-17.3,17.3-17.3s17.3,7.8,17.3,17.3
				S1001.8,754.2,992.2,754.2L992.2,754.2z"/>
		</g>
	</g>
	<g>
		<g>
			<path class="st1" d="M973.9,799.4c-46.9-6.3-86.3-31.6-105.3-67.7c-15.1-28.7-15.4-60.4-0.9-89.3l0.1-0.1l0.1-0.1
				c0.2-0.4,0.4-0.7,0.6-1.1c0.2-0.5,0.5-0.9,0.7-1.3l4.5-7.9l4.3,8c15.2,28.7,48.3,48.3,86.3,51.3l25.9,2.2v108.3L973.9,799.4z"/>
			<path class="st1" d="M873.5,642.2c16,30.1,50.6,50.8,90.3,54l21.3,1.8v98l-10.5-1.5c-84.6-11.3-135.3-84.6-102.4-149.8
				C872.7,643.9,873.1,643,873.5,642.2 M873.9,621.5l-9,15.7c-0.3,0.5-0.5,1-0.8,1.5c-0.2,0.3-0.4,0.7-0.5,1l-0.1,0.2l-0.1,0.2
				c-7.8,15.4-11.5,31.6-11.2,48.1c0.3,15.8,4.4,31.2,12.1,45.7c19.8,37.6,60.6,63.9,109.1,70.4l10.5,1.4l11.4,1.6v-11.5v-98v-9.2
				l-9.2-0.8l-21.3-1.8l0,0l0,0c-36.3-2.9-67.9-21.5-82.3-48.7L873.9,621.5L873.9,621.5z"/>
		</g>
		<g>
			<path class="st1" d="M984.5,803.7l-10.9-1.5c-47.8-6.4-88-32.3-107.4-69.2c-15.5-29.5-15.9-61.9-1.1-91.5
				c0.2-0.5,0.4-0.9,0.7-1.2c0.1-0.2,0.2-0.3,0.3-0.5l0.7-1.3l0.1-0.2c1.5-2.4,4-3.8,6.7-3.8s5.2,1.4,6.7,3.8l0.1,0.1l0.1,0.2
				c14.8,27.9,47,47,84.1,49.9l21.3,1.8c4,0.3,7.2,3.7,7.2,7.8v98c0,2.3-1,4.5-2.8,6l-0.1,0.1c-1.4,1.1-3.2,1.8-5,1.8h-0.7V803.7z
				 M874.7,658.5c-7.9,22.2-6.1,45.8,5.2,67.1c17.2,32.5,53,55.4,95.8,61.1l1.7,0.2v-81.8l-14.1-1.2
				C926.6,701.1,894.2,684.3,874.7,658.5z"/>
			<path class="st1" d="M873.7,639.4c1,0,1.9,0.6,2.5,1.5c15.6,29.3,49.4,49.5,88.1,52.5l21.3,1.8c1.5,0.1,2.6,1.3,2.6,2.8v98
				c0,0.8-0.3,1.6-1,2.1c-0.6,0.4-1.2,0.7-1.9,0.7c-0.1,0-0.2,0-0.3,0l-10.5-1.5c-46.2-6.2-85-31-103.7-66.6
				c-14.8-28.1-15.1-59-0.9-87.2c0,0,0-0.1,0.1-0.1c0.2-0.3,0.4-0.8,0.7-1.1c0.2-0.4,0.4-0.9,0.7-1.3
				C871.8,640,872.7,639.4,873.7,639.4 M982.5,792.6v-92.1l-18.7-1.6c-38.7-3-72.7-22.4-90.1-50.9c-12.3,26-11.8,54.3,1.9,79.9
				c17.9,33.9,55.1,57.8,99.5,63.7L982.5,792.6 M873.7,629.4c-4.4,0-8.5,2.3-10.9,6.2l-0.3,0.4l-0.2,0.4l-0.5,0.9c0,0,0,0.1-0.1,0.1
				c-0.4,0.6-0.8,1.2-1.1,1.9c-15.5,31-15.1,65.1,1.2,96c20.2,38.4,61.7,65.3,111.2,71.9l10.5,1.5l0.7,0.1h0.7h0.3
				c2.9,0,5.8-1,8.2-2.9l0.1-0.1l0.1-0.1c2.9-2.4,4.6-6,4.6-9.8v-98c0-6.6-5.2-12.2-11.8-12.8l-21.2-1.8l0,0l0,0
				c-35.4-2.8-66.1-20.9-80-47.2l-0.2-0.3l-0.2-0.3C882.2,631.7,878.1,629.4,873.7,629.4L873.7,629.4z M972.5,781.2
				c-39.4-6.3-72.2-27.8-88.1-57.9c-9.2-17.3-11.8-36.2-7.5-54.4c8.1,8.9,17.9,16.6,28.9,22.9c17,9.6,36.8,15.6,57.2,17.2l9.5,0.8
				L972.5,781.2L972.5,781.2z"/>
		</g>
	</g>
	<g>
		<g>
			<path class="st1" d="M953.6,679c-41.5,0-81.4-7.8-112.4-21.9c-31.4-14.3-51.7-34.2-57.1-56.1c-6.3-18.4-9.8-42.3-9.8-67.2
				c0-53.3,0-99.4,24.2-100.6c0.2-0.1,0.4-0.2,0.7-0.2c30.1-11.3,105.4-37.5,154.4-37.5c23.2,0,68.5,6.2,152.4,35.5
				c1.3,0.5,2.6,0.9,3.3,1.1c24.1,1,24.2,47.2,24.4,100.6c0,27.2-4,52.6-11.4,71.4C1108.6,647.5,1037.8,679,953.6,679z"/>
			<path class="st1" d="M953.6,400.4c56.8,0,153.8,36.6,154.8,36.6c19.4,0,20,42.8,20.2,95.6c0,27.5-4.3,52.3-11.1,69.7
				c-12.6,40.7-81.2,71.7-163.9,71.7c-84.7,0-154.5-32.5-164.7-74.4c-5.9-17.1-9.6-40.3-9.6-65.8c0-52.8,0.7-95.6,20.1-95.6
				C799.8,438.1,896,400.4,953.6,400.4 M953.6,390.4c-49.9,0-125.8,26.4-156.2,37.8c-5.6,0.5-12.7,3.2-18,12.4
				c-3.3,5.7-5.7,13.6-7.3,24c-2.7,17.7-2.9,41.8-2.9,69.1c0,25.4,3.6,49.8,10,68.7c5.9,23.3,27.1,44.3,59.8,59.2
				C870.8,676,911.4,684,953.6,684c41.1,0,81-7.6,112.3-21.4c32.3-14.3,53.9-34.4,61-56.9c7.5-19.4,11.6-45.3,11.6-73
				c-0.1-28.4-0.3-51.5-3-69.1c-1.6-10.4-3.9-18.3-7.2-24c-5.4-9.3-12.6-12-18.2-12.4c-0.7-0.2-1.6-0.6-2.6-0.9
				C1023.1,396.6,977.2,390.4,953.6,390.4L953.6,390.4z"/>
		</g>
		<g>
			<path class="st1" d="M953.6,681.8c-41.8,0-82.1-7.9-113.6-22.2c-32.2-14.7-53-35.3-58.6-57.9c-6.4-18.8-9.9-42.9-9.9-68
				c0-26.2,0-51,2.9-69.4c1.3-8.1,5.1-32.7,23.5-34c0.2-0.1,0.3-0.1,0.5-0.2c37.8-14.1,108-37.6,155.2-37.6
				c23.4,0,69,6.2,153.2,35.7c0.8,0.3,1.5,0.5,2.1,0.7c0.3,0.1,0.6,0.2,0.8,0.3c18.4,1.2,22.2,25.8,23.5,33.9
				c2.9,18.4,2.9,43.2,3,69.4c0,27.4-4.1,53-11.5,72.3c-6.9,22-28.1,41.7-59.7,55.7C1034.2,674.3,994.6,681.8,953.6,681.8z
				 M796.4,597.1l0.1,0.6c4.4,18.4,22.6,35.5,51,48.2c29.3,13.1,67,20.3,106.1,20.3c38.6,0,76-7.1,105.1-19.9
				c27.7-12.2,45.9-28.6,51.3-46.3l0.1-0.4l0.2-0.4c6.7-17.2,10.4-40.9,10.4-66.7c-0.1-22.5-0.1-45.7-2.3-62.9
				c-2.8-22.5-8-24.9-10.1-24.9c-1.4,0-1.6-0.1-6.7-1.8c-82.2-28.6-126-34.6-148.2-34.6c-49.9,0-133.6,30.6-149.9,36.7h-0.1
				c-2.1,0.8-2.7,1-4.1,1c-2.1,0-7.4,2.5-10.2,25.7c-2.1,17.5-2.1,40.2-2.1,62.1c0,23.6,3.2,45.9,9.1,63L796.4,597.1z"/>
			<path class="st1" d="M953.6,397.6c23.1,0,68.1,6.2,151.6,35.4c1.6,0.6,3,1,3.6,1.2c22.3,0.6,22.4,45.9,22.5,98.4
				c0,27-4,52.1-11.2,70.6c-13.2,42.7-83.2,73.5-166.5,73.5c-41.2,0-80.7-7.7-111.5-21.7c-30.9-14.1-50.7-33.5-55.9-54.7
				c-6.3-18.2-9.7-41.9-9.7-66.6c0-52.4,0-97.7,22.4-98.4c0.2-0.1,0.6-0.2,1-0.3C829.9,423.8,904.9,397.6,953.6,397.6 M953.7,671.2
				c39.4,0,77.5-7.3,107.1-20.4c29-12.8,48.2-30.3,54.1-49.4l0.1-0.2c7.1-17.9,10.9-42.3,10.9-68.7c-0.1-45.7-0.2-92.8-17.4-92.8
				c-0.6,0-0.6,0-5-1.6c-83-28.9-127.3-34.9-149.9-34.9c-49.1,0-128.5,28.3-151.7,37.1c-1.9,0.7-1.9,0.7-2.5,0.7
				c-17.4,0-17.4,49.3-17.4,92.8c0,24.2,3.4,47.2,9.5,64.9l0.1,0.2C801.7,640.1,871.3,671.2,953.7,671.2 M953.6,387.6
				c-47.9,0-118.5,23.6-156.7,37.8c-6,0.6-13.7,3.4-19.5,13c-3.7,6-6.3,14.3-8,25.2c-2.9,18.7-2.9,43.7-2.9,70.1
				c0,25.6,3.6,50.2,10.1,69.4c6,24.1,27.8,45.7,61.3,61c32.1,14.6,73.2,22.6,115.6,22.6c41.6,0,82-7.7,113.6-21.6
				c15.9-7,29.3-15.5,39.8-25.1c11.2-10.2,18.8-21.5,22.6-33.6c7.6-19.8,11.7-46,11.7-73.9c-0.1-26.5-0.1-51.5-3.1-70.2
				c-1.7-10.9-4.3-19.1-8-25.2c-5.8-9.5-13.5-12.4-19.4-12.9c-0.1,0-0.2-0.1-0.2-0.1c-0.6-0.2-1.3-0.4-2-0.7l0,0l0,0
				C1023.6,393.8,977.4,387.6,953.6,387.6L953.6,387.6z M800,450.9c1.9-0.1,3.1-0.5,5.2-1.2h0.1h0.1c16.1-6.1,99.1-36.4,148.2-36.4
				c21.8,0,65,6,146.6,34.4c4.8,1.7,5.9,2.1,7.8,2.1c1,1,4.4,6.2,6.3,26.3c1.5,16.1,1.5,36.6,1.6,56.5c0,25.1-3.6,48.1-10,64.7
				l-0.3,0.6l-0.2,0.8c-4.9,16-22.6,31.7-48.5,43.1c-28.5,12.6-65.1,19.5-103.1,19.5c-76.6,0-143.5-28.4-152.3-64.7l-0.3-1.1
				l-0.3-0.7c-5.6-16.5-8.8-38.2-8.8-61c0-19.4,0-39.4,1.5-55.8C795.5,457.2,799,452,800,450.9L800,450.9z"/>
		</g>
	</g>
	<g>
		<g>
			<path class="st1" d="M934,526c-23.5-0.6-45.1-2.2-64-4.9l-2.9-0.4l-9.2-22.9l-8.1,20.1l-4.1-0.8c-46.8-9.6-71.5-26.1-71.5-47.8
				c0-66.1,47.2-136.8,179.6-136.8c60.6,0,107.4,14.6,139,43.3c26.2,23.8,40.6,56.9,40.6,93.4c0,21.4-24.2,37.9-69.9,47.5l-4.1,0.9
				l-7.9-19.8l-9.1,22.6l-2.9,0.4c-19.7,2.8-41.9,4.5-65.7,5.1l-3.5,0.1l-16.5-40.9L937.5,526H934z"/>
			<path class="st1" d="M953.8,337.5c129,0,174.6,68.2,174.6,131.8c0,19.9-25.7,34.1-65.9,42.7l-11-27.5l-12.6,31.6
				c-19.7,2.8-41.8,4.5-65.2,5l-19.8-49.3L934.1,521c-22.7-0.6-44.2-2.1-63.5-4.8l-12.8-31.8l-11.2,27.8
				c-41.1-8.4-67.5-22.7-67.5-42.9C779.2,405.7,824.7,337.5,953.8,337.5 M953.8,327.5c-31.8,0-60.4,4.1-84.9,12.1
				c-22.7,7.5-42.1,18.4-57.6,32.5c-27.2,24.7-42.2,59.2-42.2,97.1c0,9.3,4,22.7,23.1,34.4c12.4,7.6,30.1,13.7,52.4,18.3l8.2,1.7
				l3.1-7.7l1.9-4.7l3.5,8.7l2.2,5.4l5.7,0.8c19.1,2.7,40.9,4.3,64.6,4.9l6.9,0.2l2.6-6.4l10.5-26.2l10.5,26.2l2.6,6.4l6.9-0.2
				c24.1-0.6,46.4-2.3,66.3-5.1l5.7-0.8l2.2-5.4l3.3-8.3l1.7,4.3l3.1,7.8l8.2-1.7c21.8-4.6,39.1-10.8,51.2-18.3
				c18.7-11.6,22.6-24.9,22.6-34.1c0-37.9-15-72.4-42.2-97.1c-15.5-14.1-34.9-25-57.6-32.5C1014.2,331.6,985.6,327.5,953.8,327.5
				L953.8,327.5z"/>
		</g>
	</g>
	<g>
		<g>
			<path class="st1" d="M953.8,643.7c-18.7,0-34-15.9-34-35.3v-5h68v5C987.8,627.9,972.6,643.7,953.8,643.7z"/>
			<path class="st1" d="M982.8,608.4c0,16.8-13,30.3-29,30.3s-29-13.5-29-30.3c20,0,13,0,29,0S971.9,608.4,982.8,608.4 M992.8,598.4
				h-10h-29h-29h-10v10c0,22.2,17.5,40.3,39,40.3s39-18.1,39-40.3V598.4L992.8,598.4z"/>
		</g>
		<g>
			<path class="st1" d="M953.8,646.5c-20.3,0-36.8-17.1-36.8-38.1c0-4.3,3.5-7.8,7.8-7.8h58c4.3,0,7.8,3.5,7.8,7.8
				C990.6,629.4,974.1,646.5,953.8,646.5z M933.9,616.2c3,8.7,10.8,14.7,19.9,14.7c9.1,0,16.9-6,19.9-14.7H933.9z"/>
			<path class="st1" d="M982.8,605.6c1.6,0,2.8,1.2,2.8,2.8c0,18.2-14.2,33.1-31.8,33.1S922,626.6,922,608.4c0-1.6,1.2-2.8,2.8-2.8
				H982.8 M979.9,611.2h-52.2c1.3,13.9,12.5,24.7,26.1,24.7S978.6,625.1,979.9,611.2 M982.8,595.6h-58c-7.1,0-12.8,5.7-12.8,12.8
				c0,23.8,18.7,43.1,41.8,43.1c11.2,0,21.8-4.5,29.7-12.8c7.8-8.1,12.1-18.9,12.1-30.3C995.6,601.3,989.9,595.6,982.8,595.6
				L982.8,595.6z M942.7,621.2h22.2c-2.9,3-6.8,4.7-11.1,4.7S945.6,624.1,942.7,621.2L942.7,621.2z"/>
		</g>
	</g>
	<g>
		<g>
			<path class="st1" d="M882.5,588c-7.5,0-13.4-5.9-13.4-13.4c0-7.4-6-13.4-13.4-13.4s-13.4,6-13.4,13.4c0,7.5-5.9,13.4-13.4,13.4
				s-13.4-5.9-13.4-13.4c0-22.1,18-40.2,40.2-40.2s40.2,18,40.2,40.2C895.9,582.1,890,588,882.5,588z"/>
			<path class="st1" d="M855.7,539.4c19.4,0,35.2,15.8,35.2,35.2c0,4.7-3.7,8.4-8.4,8.4s-8.4-3.7-8.4-8.4c0-10.1-8.3-18.4-18.4-18.4
				c-10.1,0-18.4,8.3-18.4,18.4c0,4.7-3.7,8.4-8.4,8.4s-8.4-3.7-8.4-8.4C820.6,555.2,836.4,539.4,855.7,539.4 M855.7,529.4
				c-24.9,0-45.2,20.3-45.2,45.2c0,10.1,8.3,18.4,18.4,18.4s18.4-8.3,18.4-18.4c0-4.5,3.8-8.4,8.4-8.4c4.5,0,8.4,3.8,8.4,8.4
				c0,10.1,8.3,18.4,18.4,18.4s18.4-8.3,18.4-18.4C900.9,549.7,880.6,529.4,855.7,529.4L855.7,529.4z"/>
		</g>
		<g>
			<path class="st1" d="M1078.7,588c-7.5,0-13.4-5.9-13.4-13.4c0-7.4-6-13.4-13.4-13.4s-13.4,6-13.4,13.4c0,7.5-5.9,13.4-13.4,13.4
				c-7.5,0-13.4-5.9-13.4-13.4c0-22.1,18-40.2,40.2-40.2c22.2,0,40.2,18,40.2,40.2C1092.1,582.1,1086.3,588,1078.7,588z"/>
			<path class="st1" d="M1052,539.4c19.4,0,35.2,15.8,35.2,35.2c0,4.7-3.7,8.4-8.4,8.4c-4.7,0-8.4-3.7-8.4-8.4
				c0-10.1-8.3-18.4-18.4-18.4c-10.1,0-18.4,8.3-18.4,18.4c0,4.7-3.7,8.4-8.4,8.4c-4.7,0-8.4-3.7-8.4-8.4
				C1016.8,555.2,1032.6,539.4,1052,539.4 M1052,529.4c-24.9,0-45.2,20.3-45.2,45.2c0,10.1,8.3,18.4,18.4,18.4
				c10.1,0,18.4-8.3,18.4-18.4c0-4.5,3.8-8.4,8.4-8.4c4.5,0,8.4,3.8,8.4,8.4c0,10.1,8.3,18.4,18.4,18.4c10.1,0,18.4-8.3,18.4-18.4
				C1097.1,549.7,1076.9,529.4,1052,529.4L1052,529.4z"/>
		</g>
	</g>
	<g>
		<g>
			<g>
				<path class="st1" d="M652.1,888.9c-11.2,0-20.3-9.1-20.3-20.3v-12.8c0-11.2,9.1-20.3,20.3-20.3h461.2c11.2,0,20.3,9.1,20.3,20.3
					v12.8c0,11.2-9.1,20.3-20.3,20.3H652.1z"/>
				<path class="st1" d="M1113.3,840.4c8.5,0,15.3,6.9,15.3,15.3v12.8c0,8.5-6.9,15.3-15.3,15.3H652.1c-8.5,0-15.3-6.9-15.3-15.3
					v-12.8c0-8.5,6.9-15.3,15.3-15.3H1113.3 M1113.3,830.4H652.1c-14,0-25.3,11.4-25.3,25.3v12.8c0,14,11.4,25.3,25.3,25.3h461.2
					c14,0,25.3-11.4,25.3-25.3v-12.8C1138.7,841.8,1127.3,830.4,1113.3,830.4L1113.3,830.4z"/>
			</g>
		</g>
		<g>
			<path class="st2" d="M1113.3,843.1c6.9,0,12.5,5.6,12.5,12.5v12.8c0,6.9-5.6,12.5-12.5,12.5H652.1c-6.9,0-12.5-5.6-12.5-12.5
				v-12.8c0-6.9,5.6-12.5,12.5-12.5H1113.3 M1113.3,837.5H652.1c-10,0-18.1,8.2-18.1,18.1v12.8c0,10,8.2,18.1,18.1,18.1h461.2
				c10,0,18.1-8.2,18.1-18.1v-12.8C1131.5,845.7,1123.4,837.5,1113.3,837.5L1113.3,837.5z"/>
		</g>
	</g>
	<g>
		<g>
			<g>
				<g>
					<g>
						<path class="st1" d="M416.6,728.8c-16,0-29-13-29-29v-3.5c0-16,13-29,29-29h319.9c16,0,29,13,29,29v3.5c0,16-13,29-29,29
							H416.6z"/>
						<path class="st1" d="M736.5,672.4c13.2,0,24,10.7,24,24v3.5c0,13.2-10.7,24-24,24H416.6c-13.2,0-24-10.7-24-24v-3.5
							c0-13.2,10.7-24,24-24H736.5 M736.5,662.4H416.6c-18.7,0-34,15.2-34,34v3.5c0,18.7,15.2,34,34,34h319.9c18.7,0,34-15.2,34-34
							v-3.5C770.5,677.7,755.3,662.4,736.5,662.4L736.5,662.4z"/>
					</g>
				</g>
				<g>
					<path class="st2" d="M736.6,675.2c11.6,0,21.2,9.5,21.2,21.2v3.5c0,11.6-9.5,21.2-21.2,21.2h-320c-11.6,0-21.2-9.5-21.2-21.2
						v-3.5c0-11.6,9.5-21.2,21.2-21.2H736.6 M736.6,669.6h-320c-14.8,0-26.8,12-26.8,26.8v3.5c0,14.8,12,26.8,26.8,26.8h319.9
						c14.8,0,26.8-12,26.8-26.8v-3.5C763.4,681.6,751.3,669.6,736.6,669.6L736.6,669.6z"/>
				</g>
			</g>
		</g>
		<g>
			<g>
				<g>
					<path class="st1" d="M1103.3,965.9c-43.5,0-78.9-35.4-78.9-78.9s35.4-78.9,78.9-78.9s78.9,35.4,78.9,78.9
						C1182.1,930.5,1146.8,965.9,1103.3,965.9z"/>
					<path class="st1" d="M1103.3,813.1c40.7,0,73.9,33.1,73.9,73.9c0,40.7-33.1,73.9-73.9,73.9c-40.7,0-73.9-33.1-73.9-73.9
						C1029.4,846.3,1062.5,813.1,1103.3,813.1 M1103.3,803.1c-46.3,0-83.9,37.6-83.9,83.9c0,46.3,37.6,83.9,83.9,83.9
						s83.9-37.6,83.9-83.9C1187.1,840.8,1149.5,803.1,1103.3,803.1L1103.3,803.1z"/>
				</g>
			</g>
			<g>
				<path class="st2" d="M1103.3,815.9c39.3,0,71.1,31.8,71.1,71.1s-31.8,71.1-71.1,71.1c-39.3,0-71.1-31.8-71.1-71.1
					S1064,815.9,1103.3,815.9 M1103.3,810.3c-42.3,0-76.7,34.4-76.7,76.7s34.4,76.7,76.7,76.7c42.3,0,76.7-34.4,76.7-76.7
					S1145.6,810.3,1103.3,810.3L1103.3,810.3z"/>
			</g>
		</g>
		<g>
			<g>
				<path class="st1" d="M1103.3,935.9c-27,0-48.9-21.9-48.9-48.9s21.9-48.9,48.9-48.9s48.9,21.9,48.9,48.9
					C1152.1,914,1130.2,935.9,1103.3,935.9z"/>
				<path class="st1" d="M1103.3,843.1c24.2,0,43.9,19.6,43.9,43.9c0,24.2-19.6,43.9-43.9,43.9s-43.9-19.6-43.9-43.9
					C1059.4,862.8,1079,843.1,1103.3,843.1 M1103.3,833.1c-29.7,0-53.9,24.2-53.9,53.9s24.2,53.9,53.9,53.9
					c29.7,0,53.9-24.2,53.9-53.9C1157.1,857.3,1133,833.1,1103.3,833.1L1103.3,833.1z"/>
			</g>
		</g>
		<g>
			<g>
				<path class="st1" d="M1103.3,917.1c-16.6,0-30.1-13.5-30.1-30.1s13.5-30.1,30.1-30.1s30,13.5,30,30.1S1119.8,917.1,1103.3,917.1
					z"/>
				<path class="st1" d="M1103.3,861.9c13.8,0,25.1,11.2,25.1,25.1c0,13.8-11.2,25.1-25.1,25.1c-13.9,0-25.1-11.2-25.1-25.1
					C1078.2,873.2,1089.4,861.9,1103.3,861.9 M1103.3,851.9c-19.3,0-35.1,15.7-35.1,35.1c0,19.3,15.7,35.1,35.1,35.1
					c19.4,0,35-15.7,35-35.1C1138.3,867.7,1122.6,851.9,1103.3,851.9L1103.3,851.9z"/>
			</g>
		</g>
		<g>
			<g>
				<g>
					<path class="st1" d="M1029.6,894.8c-7.8,0-14.9-3.7-19.4-10.2s-5.5-14.7-2.7-21.9c14.8-39.8,53.3-66.5,95.8-66.5
						s81,26.8,95.8,66.6c2.7,7.3,1.7,15.4-2.7,21.8c-4.5,6.5-11.6,10.2-19.5,10.2L1029.6,894.8L1029.6,894.8z"/>
					<path class="st1" d="M1103.3,801.2c40.4,0,77,25.4,91.1,63.4c2.1,5.7,1.3,12.2-2.1,17.2c-3.6,5.1-9.2,8.1-15.3,8.1h-147.4
						c-6.2,0-11.8-2.9-15.3-8.1c-3.5-5-4.4-11.5-2.1-17.2C1026.2,826.7,1062.8,801.2,1103.3,801.2 M1103.3,791.2
						c-44.5,0-84.9,28-100.5,69.8c-3.4,8.7-2.2,18.6,3.2,26.5c5.5,7.9,14.1,12.4,23.6,12.4h147.3c9.5,0,18.1-4.5,23.5-12.3
						c5.3-7.8,6.6-17.6,3.3-26.4C1188.2,819.2,1147.8,791.2,1103.3,791.2L1103.3,791.2z"/>
				</g>
			</g>
			<g>
				<path class="st2" d="M1103.1,804.1c40.5,0,75.1,25.6,88.5,61.5c3.9,10.4-3.8,21.5-14.9,21.5h-147.1c-11.1,0-18.8-11.1-14.9-21.5
					C1028,829.6,1062.6,804.1,1103.1,804.1 M1103.1,798.5c-20.8,0-40.7,6.4-57.7,18.4c-16.6,11.8-29,27.9-36,46.8
					c-2.5,6.6-1.6,14,2.5,19.8c4,5.8,10.6,9.2,17.7,9.2h147.2c7.1,0,13.7-3.5,17.7-9.2c4-5.8,4.9-13.2,2.5-19.8
					c-7.1-18.9-19.5-35.2-36-46.8C1143.9,804.7,1124,798.5,1103.1,798.5L1103.1,798.5z"/>
			</g>
		</g>
		<g>
			<g>
				<g>
					<path class="st1" d="M712.3,965.9c-43.5,0-78.9-35.4-78.9-78.9s35.4-78.9,78.9-78.9s78.9,35.4,78.9,78.9
						S755.8,965.9,712.3,965.9z"/>
					<path class="st1" d="M712.3,813.1c40.7,0,73.9,33.1,73.9,73.9c0,40.7-33.1,73.9-73.9,73.9c-40.7,0-73.9-33.1-73.9-73.9
						C638.5,846.3,671.6,813.1,712.3,813.1 M712.3,803.1c-46.3,0-83.9,37.6-83.9,83.9c0,46.3,37.6,83.9,83.9,83.9
						s83.9-37.6,83.9-83.9C796.2,840.8,758.6,803.1,712.3,803.1L712.3,803.1z"/>
				</g>
			</g>
			<g>
				<path class="st2" d="M712.3,815.9c39.3,0,71.1,31.8,71.1,71.1s-31.8,71.1-71.1,71.1s-71-31.8-71-71.1S673.1,815.9,712.3,815.9
					 M712.3,810.3c-42.3,0-76.7,34.4-76.7,76.7s34.4,76.7,76.7,76.7S789,929.3,789,887S754.6,810.3,712.3,810.3L712.3,810.3z"/>
			</g>
		</g>
		<g>
			<g>
				<path class="st1" d="M712.3,935.9c-27,0-48.9-21.9-48.9-48.9s21.9-48.9,48.9-48.9s48.9,21.9,48.9,48.9S739.3,935.9,712.3,935.9z
					"/>
				<path class="st1" d="M712.3,843.1c24.2,0,43.9,19.6,43.9,43.9c0,24.2-19.6,43.9-43.9,43.9s-43.9-19.6-43.9-43.9
					C668.5,862.8,688.1,843.1,712.3,843.1 M712.3,833.1c-29.7,0-53.9,24.2-53.9,53.9s24.2,53.9,53.9,53.9s53.9-24.2,53.9-53.9
					S742.1,833.1,712.3,833.1L712.3,833.1z"/>
			</g>
		</g>
		<g>
			<g>
				<path class="st1" d="M712.3,917.1c-16.6,0-30.1-13.5-30.1-30.1s13.5-30.1,30.1-30.1s30.1,13.5,30.1,30.1
					S728.9,917.1,712.3,917.1z"/>
				<path class="st1" d="M712.3,861.9c13.8,0,25.1,11.2,25.1,25.1c0,13.8-11.2,25.1-25.1,25.1s-25-11.2-25-25.1
					C687.3,873.2,698.5,861.9,712.3,861.9 M712.3,851.9c-19.3,0-35.1,15.7-35.1,35.1c0,19.3,15.7,35.1,35.1,35.1
					s35.1-15.7,35.1-35.1C747.4,867.7,731.7,851.9,712.3,851.9L712.3,851.9z"/>
			</g>
		</g>
		<g>
			<g>
				<g>
					<path class="st1" d="M634.9,894.8c-7.6,0-14.9-3.4-20-9.4c-5.3-6.3-7.5-14.5-6.2-22.6c12.4-73.8,55-125.3,103.6-125.3
						s91.2,51.5,103.6,125.3c1.4,8.2-0.9,16.5-6.2,22.6c-5.1,5.9-12.4,9.3-20,9.3H634.9V894.8z"/>
					<path class="st1" d="M712.2,742.6c46.1,0,86.6,49.8,98.6,121.1c1.1,6.7-0.7,13.4-5,18.5c-4.1,4.8-10,7.6-16.2,7.6H634.9
						c-6.2,0-12.1-2.8-16.2-7.6c-4.4-5.1-6.2-11.9-5-18.5C625.6,792.4,666.1,742.6,712.2,742.6 M712.2,732.6c-13,0-25.8,3.4-38,10.1
						c-11.5,6.4-22.3,15.6-31.9,27.4c-19.1,23.5-32.4,55.3-38.6,92c-1.6,9.5,1,19.2,7.3,26.6l0,0l0,0c6.1,7,14.7,11.1,23.8,11.1
						h154.7c9.1,0,17.7-4,23.8-11.1c6.3-7.2,8.9-16.9,7.3-26.6c-6.2-36.7-19.5-68.5-38.6-92c-9.6-11.8-20.3-21-31.9-27.4
						C738.1,736,725.3,732.6,712.2,732.6L712.2,732.6z"/>
				</g>
			</g>
			<g>
				<path class="st2" d="M712.2,745.3c45.8,0,84.4,50.4,95.8,118.8c2,12-6.8,22.8-18.5,22.8H634.9c-11.6,0-20.5-11-18.5-22.8
					C627.9,795.7,666.5,745.3,712.2,745.3 M712.2,739.7c-12.2,0-24.1,3.2-35.5,9.6c-10.7,6-20.8,14.9-29.8,26.2
					c-17.6,22.2-30.4,53.3-36.2,87.7c-1.2,7.5,0.8,15.1,5.7,20.8c4.6,5.5,11.3,8.6,18.4,8.6h154.6c7.1,0,13.8-3.1,18.4-8.6
					c4.8-5.7,6.9-13.3,5.7-20.8c-5.7-34.4-18.6-65.5-36.2-87.7c-9-11.3-18.9-20.1-29.8-26.2C736.4,742.9,724.4,739.7,712.2,739.7
					L712.2,739.7z"/>
			</g>
		</g>
		<g>
			<g>
				<path class="st1" d="M652,876.1c-7.8,0-14.2-6.4-14.2-14.2s6.4-14.2,14.2-14.2h73.2c7.8,0,14.2,6.4,14.2,14.2
					s-6.4,14.2-14.2,14.2H652z"/>
				<path class="st1" d="M725.2,852.8c5,0,9.2,4.1,9.2,9.2c0,5-4.1,9.2-9.2,9.2H652c-5,0-9.2-4.1-9.2-9.2c0-5,4.1-9.2,9.2-9.2H725.2
					 M725.2,842.8H652c-10.6,0-19.2,8.6-19.2,19.2s8.6,19.2,19.2,19.2h73.2c10.6,0,19.2-8.6,19.2-19.2
					C744.4,851.4,735.8,842.8,725.2,842.8L725.2,842.8z"/>
			</g>
		</g>
		<g>
			<g>
				<path class="st1" d="M652,842.5c-7.8,0-14.2-6.4-14.2-14.2s6.4-14.2,14.2-14.2h73.2c7.8,0,14.2,6.4,14.2,14.2
					s-6.4,14.2-14.2,14.2H652z"/>
				<path class="st1" d="M725.2,819.2c5,0,9.2,4.1,9.2,9.2c0,5-4.1,9.2-9.2,9.2H652c-5,0-9.2-4.1-9.2-9.2c0-5,4.1-9.2,9.2-9.2H725.2
					 M725.2,809.2H652c-10.6,0-19.2,8.6-19.2,19.2s8.6,19.2,19.2,19.2h73.2c10.6,0,19.2-8.6,19.2-19.2
					C744.4,817.8,735.8,809.2,725.2,809.2L725.2,809.2z"/>
			</g>
		</g>
		<g>
			<g>
				<path class="st1" d="M456.3,745.3c-12.5,0-22.7-10.2-22.7-22.7v-68.4c0-12.5,10.2-22.7,22.7-22.7s22.7,10.2,22.7,22.7v68.4
					C479,735.1,468.8,745.3,456.3,745.3z"/>
				<path class="st1" d="M456.3,636.5c9.7,0,17.7,7.9,17.7,17.7v68.4c0,9.7-7.9,17.7-17.7,17.7s-17.7-7.9-17.7-17.7v-68.4
					C438.6,644.4,446.6,636.5,456.3,636.5 M456.3,626.5c-15.3,0-27.7,12.4-27.7,27.7v68.4c0,15.3,12.4,27.7,27.7,27.7
					s27.7-12.4,27.7-27.7v-68.4C484,638.9,471.6,626.5,456.3,626.5L456.3,626.5z"/>
			</g>
			<g>
				<path class="st1" d="M456.3,748.1c-14.1,0-25.5-11.4-25.5-25.5v-68.4c0-14.1,11.4-25.5,25.5-25.5s25.5,11.4,25.5,25.5v68.4
					C481.8,736.6,470.4,748.1,456.3,748.1z M456.3,644.3c-5.5,0-9.9,4.4-9.9,9.9v68.4c0,5.5,4.4,9.9,9.9,9.9s9.9-4.4,9.9-9.9v-68.4
					C466.2,648.7,461.8,644.3,456.3,644.3z"/>
				<path class="st1" d="M456.3,633.7c11.3,0,20.5,9.2,20.5,20.5v68.4c0,11.3-9.2,20.5-20.5,20.5s-20.5-9.2-20.5-20.5v-68.4
					C435.8,642.9,445,633.7,456.3,633.7 M456.3,737.5c8.2,0,14.9-6.7,14.9-14.9v-68.4c0-8.2-6.7-14.9-14.9-14.9s-14.9,6.7-14.9,14.9
					v68.4C441.4,730.7,448.2,737.5,456.3,737.5 M456.3,623.7c-16.8,0-30.5,13.7-30.5,30.5v68.4c0,16.8,13.7,30.5,30.5,30.5
					s30.5-13.7,30.5-30.5v-68.4C486.8,637.4,473.1,623.7,456.3,623.7L456.3,623.7z M456.3,727.5c-2.6,0-4.9-2.2-4.9-4.9v-68.4
					c0-2.6,2.2-4.9,4.9-4.9s4.9,2.2,4.9,4.9v68.4C461.2,725.2,459,727.5,456.3,727.5L456.3,727.5z"/>
			</g>
		</g>
		<g>
			<g>
				<path class="st1" d="M575.3,745.3c-12.5,0-22.7-10.2-22.7-22.7v-68.4c0-12.5,10.2-22.7,22.7-22.7s22.7,10.2,22.7,22.7v68.4
					c0.1,5.9-2.2,11.6-6.5,15.9C587.2,742.9,581.5,745.3,575.3,745.3z"/>
				<path class="st1" d="M575.3,636.5c9.7,0,17.7,7.9,17.7,17.7v68.4c0.1,9.7-7.9,17.7-17.7,17.7c-9.7,0-17.7-7.9-17.7-17.7v-68.4
					C557.6,644.4,565.6,636.5,575.3,636.5 M575.3,626.5c-15.3,0-27.7,12.4-27.7,27.7v68.4c0,15.3,12.4,27.7,27.7,27.7
					c7.5,0,14.5-2.9,19.7-8.3c5.2-5.2,8-12.2,7.9-19.5v-68.3C603,638.9,590.6,626.5,575.3,626.5L575.3,626.5z"/>
			</g>
			<g>
				<path class="st1" d="M575.3,748.1c-14.1,0-25.5-11.4-25.5-25.5v-68.4c0-14.1,11.4-25.5,25.5-25.5c14.1,0,25.5,11.4,25.5,25.5
					v68.3c0.1,6.6-2.5,13.2-7.3,17.9C588.8,745.3,582.3,748.1,575.3,748.1z M575.3,644.3c-5.5,0-9.9,4.4-9.9,9.9v68.4
					c0,5.5,4.4,9.9,9.9,9.9c2.7,0,5.2-1,7-2.9c1.9-1.9,2.9-4.3,2.9-6.9v-68.4C585.2,648.7,580.8,644.3,575.3,644.3z"/>
				<path class="st1" d="M575.3,633.7c11.3,0,20.5,9.2,20.5,20.5v68.4c0.1,5.4-2,10.5-5.8,14.3c-3.9,4-9.2,6.2-14.7,6.2
					c-11.3,0-20.5-9.2-20.5-20.5v-68.4C554.8,642.9,564,633.7,575.3,633.7 M575.3,737.5c4,0,7.8-1.6,10.6-4.5
					c2.8-2.8,4.3-6.5,4.3-10.4v-68.4c0-8.2-6.7-14.9-14.9-14.9s-14.9,6.7-14.9,14.9v68.4C560.4,730.7,567.2,737.5,575.3,737.5
					 M575.3,623.7c-16.8,0-30.5,13.7-30.5,30.5v68.4c0,16.8,13.7,30.5,30.5,30.5c8.3,0,16-3.2,21.8-9.1c5.7-5.7,8.8-13.5,8.7-21.4
					v-68.3C605.8,637.4,592.1,623.7,575.3,623.7L575.3,623.7z M575.3,727.5c-2.6,0-4.9-2.2-4.9-4.9v-68.4c0-2.6,2.2-4.9,4.9-4.9
					c2.6,0,4.9,2.2,4.9,4.9v68.4c0,1.3-0.4,2.5-1.3,3.3l-0.1,0.1l-0.1,0.1C577.6,727.2,576.3,727.5,575.3,727.5L575.3,727.5z"/>
			</g>
		</g>
		<g>
			<g>
				<path class="st1" d="M694.4,745.3c-12.5,0-22.7-10.2-22.7-22.7v-68.4c0-12.5,10.2-22.7,22.7-22.7s22.7,10.2,22.7,22.7v68.4
					C717.1,735.1,706.9,745.3,694.4,745.3z"/>
				<path class="st1" d="M694.4,636.5c9.7,0,17.7,7.9,17.7,17.7v68.4c0,9.7-7.9,17.7-17.7,17.7c-9.7,0-17.7-7.9-17.7-17.7v-68.4
					C676.7,644.4,684.7,636.5,694.4,636.5 M694.4,626.5c-15.3,0-27.7,12.4-27.7,27.7v68.4c0,15.3,12.4,27.7,27.7,27.7
					s27.7-12.4,27.7-27.7v-68.4C722.1,638.9,709.7,626.5,694.4,626.5L694.4,626.5z"/>
			</g>
			<g>
				<path class="st1" d="M694.4,748.1c-14.1,0-25.5-11.4-25.5-25.5v-68.4c0-14.1,11.4-25.5,25.5-25.5s25.5,11.4,25.5,25.5v68.4
					C719.9,736.6,708.5,748.1,694.4,748.1z M694.4,644.3c-5.5,0-9.9,4.4-9.9,9.9v68.4c0,5.5,4.4,9.9,9.9,9.9s9.9-4.4,9.9-9.9v-68.4
					C704.3,648.7,699.9,644.3,694.4,644.3z"/>
				<path class="st1" d="M694.4,633.7c11.3,0,20.5,9.2,20.5,20.5v68.4c0,11.3-9.2,20.5-20.5,20.5s-20.5-9.2-20.5-20.5v-68.4
					C674,642.9,683.1,633.7,694.4,633.7 M694.4,737.5c8.2,0,14.9-6.7,14.9-14.9v-68.4c0-8.2-6.7-14.9-14.9-14.9s-14.9,6.7-14.9,14.9
					v68.4C679.5,730.7,686.3,737.5,694.4,737.5 M694.4,623.7c-16.8,0-30.5,13.7-30.5,30.5v68.4c0,16.8,13.7,30.5,30.5,30.5
					s30.5-13.7,30.5-30.5v-68.4C724.9,637.4,711.2,623.7,694.4,623.7L694.4,623.7z M694.4,727.5c-2.6,0-4.9-2.2-4.9-4.9v-68.4
					c0-2.6,2.2-4.9,4.9-4.9c2.6,0,4.9,2.2,4.9,4.9v68.4C699.3,725.2,697.1,727.5,694.4,727.5L694.4,727.5z"/>
			</g>
		</g>
	</g>
	<g>
		<g>
			<g>
				<path class="st1" d="M785.8,638.2c-15.3,0-29.4-15-38.7-41.2c-7.2-20-11-41.1-11.4-62.7c-1-68.5,14.7-118.2,48-152
					c17-17.2,38.8-30.4,65-39.3c27.5-9.3,60.8-14,99.1-14c60.2,0,97.8,5.6,121.6,18.2c22.8,12,31.1,29.1,40.9,48.9l0.5,1.1
					c3.8,7.7,7.8,15.7,12.9,24.2h27.6c17.1,0,31,13.9,31,31s-13.9,31-31,31h-6c-106-0.1-192.7-0.1-250.7-0.1c-44.4,0-66.1,0-76,0.1
					l0.9,93.9C819.3,619.4,802.4,638.2,785.8,638.2z"/>
				<path class="st1" d="M947.8,334c126.6,0,139,25.6,158.1,64.5c4.4,8.8,8.8,18,15.1,28h30.3c14.3,0,26,11.6,26,26s-11.6,26-26,26
					c-1.6,0-156.9-0.1-256.7-0.1c-53.8,0-74.4,0-81,0.1l0.9,98.8c-0.1,38.6-14.4,56-28.7,56c-13,0-25.4-13.8-34-37.8
					c-7.1-19.6-10.7-40.2-11.1-61.1c-1-67.1,14.2-115.6,46.6-148.4c16.5-16.7,37.6-29.4,63-38.1C877.4,338.6,910.2,334,947.8,334
					 M947.8,324c-38.8,0-72.7,4.8-100.7,14.3c-26.9,9.1-49.4,22.8-66.9,40.5c-34.3,34.8-50.5,85.7-49.4,155.6
					c0.4,22.2,4.3,43.8,11.7,64.4c4.7,13.2,10.6,23.7,17.4,31.2c9.8,10.9,19.6,13.2,26.1,13.2c11.1,0,21.4-6.7,28.2-18.4
					c6.9-11.7,10.4-27.7,10.4-47.5v-0.1v-0.1l-0.8-88.8c11.6,0,32.9,0,71,0c58,0,144.7,0,250.7,0.1h6c19.8,0,36-16.1,36-36
					s-16.1-36-36-36h-24.7c-4.4-7.4-7.9-14.5-11.3-21.4l-0.5-1v-0.1c-9.7-19.7-18.8-38.4-43-51.2C1047.1,329.8,1008.9,324,947.8,324
					L947.8,324z"/>
			</g>
		</g>
		<g>
			<path class="st2" d="M947.7,336.8c154.4,0,136,37.3,171.6,92.5h31.8c12.8,0,23.2,10.4,23.2,23.2l0,0c0,12.8-10.4,23.2-23.2,23.2
				c0,0-155.8-0.1-256.7-0.1c-48.2,0-84,0-84,0.1l1,101.6c0,34-11.8,53.2-25.6,53.2c-10.6,0-22.6-11.3-31.5-36
				c-6.8-18.9-10.6-39.2-11-60.2C741.8,426.1,781.4,336.8,947.7,336.8 M947.7,331.2c-37.9,0-71,4.7-98.4,13.9
				c-25.7,8.7-47.4,21.7-64,38.7c-32.9,33.4-48.4,82.6-47.4,150.5c0.3,21.3,4.1,42.1,11.3,62.1c9.1,25.3,22.4,39.7,36.7,39.7
				c9.2,0,17.4-6,23.1-16.9c5.4-10.4,8.3-25,8.3-42l-0.9-96c8.8,0,30.3-0.1,78.2-0.1c99.7,0,255.1,0.1,256.7,0.1
				c15.9,0,28.8-12.9,28.8-28.8s-12.9-28.8-28.8-28.8h-28.8c-5.8-9.3-10-18-14.1-26.4c-9.6-19.7-17.9-36.6-40.4-48.4
				C1044.4,336.6,1007.3,331.2,947.7,331.2L947.7,331.2z"/>
		</g>
	</g>
	<g>
		<g>
			<g>
				<g>
					<path class="st1" d="M467.9,510.6c-2.3,0-4.4-0.6-6.2-1.8c-1.9-1.3-3.4-3-4.3-5.2l-2.4-5.4h-20.7l-2.4,5.4
						c-1,2.2-2.5,4.1-4.6,5.3c-1.9,1.2-3.9,1.7-6.2,1.7c-3,0-5.7-1-8.2-3c-2.8-2.2-4.3-5.2-4.3-8.6c0-1.8,0.4-3.6,1.3-5.4l22-45.1
						c1.2-2.5,3-4.4,5.4-5.7c2.3-1.2,4.6-1.8,7.1-1.8c2.4,0,4.8,0.6,7.1,1.8c2.4,1.3,4.2,3.3,5.4,5.7l22.1,45.3l0.1,0.2
						c0.6,1.5,1.1,3.1,1.1,5c0,3.2-1.3,6.1-3.8,8.4l-0.2,0.1C473.7,509.6,470.9,510.6,467.9,510.6z M445.1,476.7l-0.7-1.4l-0.7,1.4
						H445.1z"/>
					<path class="st1" d="M444.4,446c1.7,0,3.2,0.4,4.7,1.2c1.5,0.8,2.6,2,3.2,3.5l22.1,45.2c0.4,1.1,0.8,2.1,0.8,3.1
						c0,1.8-0.8,3.4-2.2,4.7c-1.5,1.2-3.1,1.9-5,1.9c-1.2,0-2.5-0.3-3.5-1s-1.9-1.7-2.5-3l-3.8-8.4h-27.1l-3.8,8.4
						c-0.6,1.3-1.5,2.4-2.6,3s-2.2,1-3.6,1c-1.9,0-3.6-0.7-5.1-1.9c-1.6-1.2-2.4-2.8-2.4-4.7c0-1,0.2-2,0.8-3.1l22.1-45.2
						c0.7-1.5,1.8-2.7,3.2-3.5C441.1,446.4,442.7,446,444.4,446 M436.1,481.7h16.8l-8.4-18.6L436.1,481.7 M444.4,436
						c-3.3,0-6.5,0.8-9.4,2.4c-3.3,1.8-5.9,4.6-7.5,8l-22,45.1c-1.2,2.4-1.8,5-1.8,7.6c0,5,2.2,9.4,6.2,12.6c3.4,2.7,7.2,4,11.3,4
						c3.1,0,6-0.8,8.7-2.4c2.9-1.8,5.2-4.4,6.6-7.6l1.1-2.4h14.2l1.1,2.4c1.3,3,3.4,5.5,6.1,7.3c2.6,1.8,5.8,2.7,9,2.7
						c4.2,0,8.2-1.5,11.5-4.3l0.2-0.1l0.2-0.1c3.5-3.2,5.5-7.5,5.5-12c0-2.7-0.8-5-1.5-6.8l-0.1-0.3l-0.2-0.3l-22-45.2
						c-1.6-3.4-4.3-6.2-7.5-8C450.8,436.8,447.6,436,444.4,436L444.4,436z"/>
				</g>
			</g>
			<g>
				<g>
					<path class="st1" d="M488,511c-3.3,0-6.2-1-8.4-2.8c-2.7-2.1-4-5.1-4-9.1v-28.9c0-4.8,2.2-7.5,4.1-8.9c2.4-1.9,5.2-2.8,8.2-2.8
						c3.3,0,6.1,1,8.3,3l0.1,0.1l0,0c2.7-1.8,5.6-2.8,8.8-3l1-0.1c0.4-0.1,0.9-0.1,1.4-0.1c2.6,0,5,0.9,6.9,2.6
						c1.5,1.4,3.3,3.9,3.3,8.3c0,3.5-1,6.3-3,8.3c-1.9,1.9-4.8,3-8.7,3.4l-2.3,0.2c-2,0.2-2.5,0.8-2.5,0.8l-0.1,0.2
						c-0.2,0.2-0.6,0.7-0.6,2.6v14.3c0,4.9-2.2,7.7-4.1,9.1C494,510,491.2,511,488,511z"/>
					<path class="st1" d="M507.5,463.5c1.5,0,2.6,0.5,3.6,1.3c1.1,1,1.7,2.6,1.7,4.6c0,2.2-0.6,3.8-1.6,4.8c-1,1-2.9,1.7-5.6,1.9
						l-2.5,0.2c-2.8,0.3-4.8,1.2-5.9,2.7c-1.2,1.5-1.8,3.4-1.8,5.8v14.3c0,2.2-0.7,4-2.1,5.1s-3.1,1.7-5.3,1.7s-3.9-0.6-5.3-1.7
						c-1.5-1.1-2.1-2.8-2.1-5.1v-28.9c0-2.1,0.7-3.8,2.1-4.9s3.1-1.8,5.1-1.8s3.7,0.6,4.9,1.7c1.2,1.1,1.9,2.7,1.9,4.7v1.6
						c0.9-2.5,2.4-4.4,4.4-5.7s4.1-2,6.4-2.1l1.1-0.1C506.9,463.5,507.2,463.5,507.5,463.5 M507.5,453.5c-0.7,0-1.3,0-2,0.1
						l-0.8,0.1c-2.8,0.2-5.5,0.9-8.1,2c-2.6-1.4-5.5-2.2-8.7-2.2c-4.1,0-8,1.3-11.2,3.9c-3.9,3-6,7.6-6,12.9v28.9
						c0,6.8,3.2,10.8,5.9,13c3.1,2.5,7.1,3.9,11.5,3.9c4.3,0,8.1-1.3,11.4-3.8c3.9-3,6-7.6,6-13.1v-13l1.1-0.1c5.1-0.4,9-2,11.8-4.8
						c2.1-2.1,4.5-5.8,4.5-11.9c0-4.9-1.8-9.1-5-12C515,454.8,511.4,453.5,507.5,453.5L507.5,453.5z"/>
				</g>
			</g>
			<g>
				<g>
					<path class="st1" d="M522.9,511c-4.2,0-6.9-1.6-8.5-3c-2.6-2.1-3.9-5.1-3.9-9v-28.7c0-4.9,2.2-7.7,4.1-9.1
						c0.3-0.2,0.5-0.4,0.8-0.6c-0.6-0.3-1.1-0.7-1.6-1.2l-0.2-0.1c-2.6-2.4-3.8-5.4-3.8-8.9c0-3.6,1.4-6.8,4-9
						c2.4-2,5.6-3.1,9.2-3.1c3.6,0,6.8,1.1,9.2,3.1c2.6,2.2,4,5.4,4,9c0,3.5-1.3,6.6-3.8,8.9c-0.5,0.5-1.1,0.9-1.7,1.3
						c0.3,0.2,0.6,0.4,0.8,0.6c2.7,2.1,4,5.1,4,9.1v28.8c0,4.9-2.2,7.7-4.1,9.1C528.9,510,526.1,511,522.9,511z"/>
					<path class="st1" d="M522.9,443.4c2.5,0,4.5,0.7,5.9,1.9c1.5,1.2,2.2,3,2.2,5.1s-0.8,3.9-2.2,5.3c-1.5,1.3-3.5,2-5.9,2
						c-2.5-0.1-4.5-0.8-5.9-2c-1.5-1.3-2.2-3-2.2-5.3c0-2.1,0.8-3.9,2.2-5.1C518.5,444.1,520.5,443.4,522.9,443.4 M522.9,463.5
						c2.1,0,3.9,0.6,5.3,1.7c1.5,1.1,2.1,2.8,2.1,5.1v28.8c0,2.2-0.7,4-2.1,5.1c-1.5,1.1-3.1,1.7-5.3,1.7c-2.2,0-3.9-0.6-5.3-1.8
						c-1.5-1.1-2.1-2.8-2.1-5.1v-28.7c0-2.2,0.7-4,2.1-5.1C519,464.1,520.8,463.5,522.9,463.5 M522.9,433.4c-4.8,0-9.1,1.5-12.4,4.3
						c-3.7,3.2-5.8,7.7-5.8,12.8c0,3.9,1.2,7.5,3.5,10.4c-1.8,2.7-2.7,5.9-2.7,9.5V499c0,6.7,3,10.6,5.7,12.8c2.2,2,6,4.1,11.7,4.1
						c4.3,0,8.1-1.3,11.4-3.8c3.9-3,6-7.6,6-13.1v-28.8c0-4.1-1.2-7.2-2.7-9.5c2.2-2.9,3.5-6.6,3.5-10.4c0-5.1-2.1-9.6-5.8-12.8
						C532,434.9,527.7,433.4,522.9,433.4L522.9,433.4z"/>
				</g>
			</g>
			<g>
				<g>
					<path class="st1" d="M558.6,526.1c-3.6,0-6.7-0.3-9.7-0.9c-3.4-0.7-6.2-1.7-8.4-3c-1.8-1-3.1-2.3-4.1-3.8
						c-1.1-1.8-1.7-3.7-1.7-5.7c0-2.7,0.8-5.1,2.3-7c0.8-1,1.7-1.7,2.7-2.3c-1.9-1.8-3.4-3.9-4.7-6.4c-1.9-3.8-2.9-8.2-2.9-13
						s1-9.2,2.9-13c2-3.9,4.7-6.9,8.3-9.3l0.1-0.1c3.6-2.2,7.7-3.3,12.1-3.3c3.5,0,6.8,0.8,9.7,2.2c0.6,0.3,1.2,0.6,1.7,1
						c0.1-0.1,0.2-0.1,0.3-0.2c2.3-1.9,5.1-2.8,8.4-2.8c4.3,0,7.1,1.7,8.6,3.1c2.4,2.2,3.6,5.2,3.6,8.6v30.1
						c0,8.4-2.7,14.9-7.9,19.3C574.8,523.9,567.6,526.1,558.6,526.1z M560,479.5c-1.6,0-2.1,0.5-2.3,0.7c-0.2,0.3-0.9,1-0.9,3.7
						c0,2.4,0.8,3.3,1,3.6c0.2,0.2,0.6,0.7,2,0.7c1.8-0.1,2.3-0.7,2.5-0.9c0.5-0.5,0.8-1.8,0.8-3.4c0-1.2-0.2-2.8-0.9-3.7
						C562.1,480,561.6,479.5,560,479.5z"/>
					<path class="st1" d="M555.5,463.4c2.7,0,5.3,0.6,7.5,1.7s4,2.7,5.3,4.6c0.1-1.9,0.8-3.4,2.1-4.5c1.3-1.1,3-1.7,5.1-1.7
						c2.1,0,3.9,0.6,5.3,1.8c1.3,1.2,2,2.9,2,4.9v30.1c0,6.8-2,12-6.2,15.4c-4.1,3.5-10.1,5.3-18,5.3c-3,0-5.9-0.2-8.7-0.8
						c-2.7-0.6-5-1.3-6.9-2.5c-1-0.6-1.8-1.2-2.4-2.1c-0.6-0.9-0.9-1.9-0.9-3c0-1.6,0.4-2.9,1.2-3.9c0.8-1,1.9-1.5,3.1-1.5
						c1,0,2.8,0.4,5.5,1.2c1.7,0.6,3.2,1,4.6,1.3c1.4,0.3,2.7,0.4,4.1,0.4c3.4,0,5.9-0.7,7.5-2.1c1.6-1.5,2.4-3.7,2.4-6.7v-3.1
						c-1.2,1.8-3,3.2-5.3,4.4c-2.2,1.1-4.8,1.7-7.4,1.7c-3.6,0-6.7-0.8-9.5-2.5s-4.9-4-6.5-7.2c-1.6-3.1-2.4-6.7-2.4-10.7
						s0.8-7.6,2.4-10.7c1.6-3.1,3.7-5.5,6.5-7.3C548.8,464.3,551.9,463.4,555.5,463.4 M560,493.2c2.6-0.1,4.6-0.9,6-2.5
						c1.5-1.6,2.1-3.9,2.1-6.8s-0.7-5.3-2.1-6.9c-1.5-1.7-3.5-2.5-6-2.5s-4.6,0.8-6,2.5c-1.5,1.7-2.1,3.9-2.1,6.9
						c0,2.9,0.8,5.1,2.2,6.8S557.5,493.2,560,493.2 M555.5,453.4c-5.3,0-10.2,1.3-14.7,4l-0.1,0.1l-0.1,0.1
						c-4.3,2.8-7.7,6.5-10,11.2c-2.3,4.5-3.4,9.6-3.4,15.2s1.1,10.7,3.4,15.2c0.7,1.3,1.4,2.6,2.2,3.7c-2,2.7-3.1,6.1-3.1,9.7
						c0,2.9,0.8,5.8,2.4,8.3c1.4,2.3,3.4,4.1,5.9,5.5c2.7,1.6,6,2.8,9.9,3.6l0,0l0,0c3.3,0.7,6.8,1,10.7,1c10.2,0,18.4-2.6,24.4-7.6
						c6.5-5.4,9.7-13.2,9.7-23.1v-30.1c0-4.8-1.9-9.2-5.3-12.3c-2.2-2-6.1-4.4-12-4.4c-3.3,0-6.3,0.7-8.9,2.2
						C563.2,454.2,559.4,453.4,555.5,453.4L555.5,453.4z"/>
				</g>
			</g>
			<g>
				<g>
					<path class="st1" d="M604.8,511.1c-3.5,0-6.9-0.7-9.9-2.2c-3.2-1.6-5.6-3.8-7.4-6.6c-1.9-2.8-2.8-6.1-2.8-9.7
						c0-4.1,1.2-7.6,3.6-10.3c0.6-0.7,1.3-1.4,2.1-2c-0.5-0.4-1.1-0.9-1.5-1.4l-0.1-0.1l-0.1-0.1c-1.5-1.9-2.3-4.3-2.3-7
						c0-2.3,0.5-4.2,1.6-5.7c1.1-1.8,2.7-2.9,4.1-3.7l0.1-0.1l0.1-0.1c2.2-1.2,5-2.1,8.6-2.9h0.1c3.4-0.7,6.6-1,9.7-1
						c7.7,0.1,13.6,2.2,17.5,6.2c4,4,6.1,9.8,6.1,17.3v17.5c0,4.4-1.9,7.1-3.5,8.5c-2.2,2.1-5.1,3.2-8.7,3.2c-2.9,0-5.6-0.9-7.6-2.5
						c-0.2,0.1-0.3,0.2-0.5,0.3C611.4,510.3,608.3,511.1,604.8,511.1z"/>
					<path class="st1" d="M610.7,463.2c6.3,0.1,11,1.7,14,4.7s4.6,7.6,4.6,13.8v17.5c0,2.1-0.7,3.8-1.9,4.9c-1.2,1.2-3,1.8-5.3,1.8
						c-1.9,0-3.6-0.6-4.8-1.7c-1.2-1.1-1.9-2.6-2-4.5c-0.8,2-2.1,3.6-3.9,4.7s-4,1.7-6.6,1.7c-2.8,0-5.4-0.6-7.7-1.7
						c-2.2-1.1-4-2.7-5.4-4.8c-1.3-2-2-4.4-2-6.9c0-2.9,0.8-5.3,2.4-7.1c1.6-1.8,3.9-3,7.3-3.8c3.4-0.8,7.8-1.1,13.5-1.1h2.2v-1
						c0-1.9-0.4-3.4-1.3-4.3c-0.9-0.9-2.4-1.3-4.5-1.3c-2.2,0-5.6,0.8-10.1,2.4c-1.2,0.4-2.4,0.7-3.2,0.7c-1.3,0-2.5-0.4-3.4-1.5
						c-0.8-1-1.2-2.4-1.2-3.9c0-1.2,0.2-2.2,0.8-3c0.4-0.8,1.3-1.5,2.5-2.1c1.9-1,4.4-1.8,7.4-2.5
						C604.9,463.5,607.8,463.2,610.7,463.2 M608.4,496.1c2,0,3.6-0.7,4.9-2.1c1.2-1.5,1.9-3.2,1.9-5.5v-1h-1.3c-3.6,0-6,0.3-7.6,1
						c-1.5,0.7-2.2,1.7-2.2,3.2c0,1.2,0.4,2.4,1.2,3.1C606,495.7,607.1,496.1,608.4,496.1 M610.8,453.2L610.8,453.2
						c-3.5,0-6.9,0.4-10.7,1.1H600h-0.1c-4.1,0.9-7.3,2-9.9,3.4l-0.2,0.1l-0.2,0.1c-1.7,1-4.1,2.6-5.7,5.3c-1.6,2.4-2.4,5.2-2.4,8.4
						c0,3.1,0.8,6,2.2,8.4c-2.6,3.4-3.9,7.7-3.9,12.5c0,4.5,1.3,8.8,3.6,12.4s5.4,6.4,9.3,8.3h0.1h0.1c3.7,1.8,7.7,2.7,12,2.7
						c3.5,0,6.7-0.7,9.6-2c2.3,1.1,5,1.7,7.8,1.7c6.1,0,10-2.4,12.2-4.6c3.2-3,5-7.3,5-12.2v-17.5c0-8.8-2.5-15.9-7.5-20.8
						C626.9,455.9,619.8,453.4,610.8,453.2L610.8,453.2L610.8,453.2z"/>
				</g>
			</g>
			<g>
				<g>
					<path class="st1" d="M660.3,510.9c-0.5,0-1.1,0-1.7-0.1l-2.3-0.1c-6.4-0.4-11.3-2.5-14.8-6.1c-3.5-3.7-5.3-8.6-5.3-14.5v-9.9
						c-6.7-1-9.2-5.8-9.2-10.3s2.5-9.4,9.2-10.3v-0.7c0-4.5,2-7.2,3.6-8.7c2.3-2.1,5.3-3.2,8.9-3.2c3.5,0,6.6,1.1,8.9,3.2
						c1.7,1.5,3.6,4.3,3.6,8.7v0.5c8.3,0.2,11.3,5.5,11.3,10.5s-3,10.3-11.3,10.5v9.9l1.3,0.1h0.1c6.1,0.6,9.9,4.5,9.9,10.1
						c0,3.5-1.6,6.5-4.4,8.5l-0.1,0.1l-0.1,0.1C665.9,510.2,663.3,510.9,660.3,510.9z"/>
					<path class="st1" d="M648.8,451.9c2.2,0,4.1,0.7,5.5,1.9c1.3,1.2,2,2.9,2,5v5.5h4.6c4.5,0,6.7,1.8,6.7,5.5s-2.2,5.5-6.7,5.5
						h-4.6v16c0,1,0.3,1.9,1,2.7c0.7,0.7,1.5,1.1,2.5,1.1l2.5,0.1c3.5,0.3,5.4,2,5.4,5.1c0,1.9-0.8,3.4-2.2,4.4
						c-1.2,0.7-2.9,1.2-5,1.2c-0.4,0-0.9,0-1.3-0.1l-2.4-0.1c-5-0.3-8.8-1.9-11.4-4.6c-2.6-2.7-3.9-6.4-3.9-11.1v-14.8H639
						c-4.5,0-6.7-1.8-6.7-5.5c0-3.6,2.2-5.5,6.7-5.5h2.5v-5.5c0-2.1,0.7-3.8,2-5S646.4,451.9,648.8,451.9 M648.8,441.9
						c-6,0-10,2.5-12.2,4.5c-2,1.8-4.2,4.7-5,9.1c-6.5,2.5-9.5,8.4-9.5,14.2c0,5.8,2.9,11.6,9.2,14.1v6.1c0,9.1,3.6,14.8,6.7,18
						c4.4,4.6,10.4,7.1,18,7.6h0.1h0.1l2.2,0.1c0.7,0.1,1.3,0.1,2,0.1c3.9,0,7.5-0.9,10.3-2.7l0.2-0.1l0.2-0.2
						c4.2-2.9,6.5-7.5,6.5-12.6c0-7.2-4.4-12.7-11.3-14.5v-1.2c7.8-2,11.3-8.5,11.3-14.8c0-6.5-3.7-13-11.7-14.9
						c-0.9-4-3-6.8-4.8-8.4C657.8,443.5,653.5,441.9,648.8,441.9L648.8,441.9z"/>
				</g>
			</g>
		</g>
		<g>
			<g>
				<g>
					<path class="st1" d="M706.5,505.8c-4.5,0-8.7-1.8-11.9-4.9l-12.3-12.3c-0.3-0.3-0.5-0.6-0.8-0.8c0-0.1-0.1-0.1-0.2-0.2
						l-0.2-0.2l-0.2-0.2c-1.3-1.6-2.2-3.5-2.9-5.6c-0.6-1.9-0.8-4.1-0.7-6.3c0.3-4,2-7.7,4.8-10.4l12.3-12.3
						c3.2-3.2,7.4-4.9,11.9-4.9s8.8,1.8,11.9,4.9l12.3,12.3c2.8,2.8,4.5,6.5,4.8,10.4c0.2,2.2,0,4.3-0.6,6.2
						c-0.5,1.7-1.4,3.5-2.7,5.4c-0.5,0.7-1,1.2-1.5,1.7l-12.3,12.3C715.3,504.1,711,505.8,706.5,505.8z"/>
					<path class="st1" d="M706.5,452.6c3.1,0,6.2,1.2,8.4,3.5l12.3,12.3c2,2,3.1,4.6,3.4,7.3c0.1,1.5,0,3-0.4,4.5
						c-0.3,1.3-1.1,2.7-2,3.9c-0.2,0.3-0.6,0.7-0.9,1L715,497.4c-2.2,2.2-5.3,3.5-8.4,3.5c-3.1,0-6.2-1.2-8.4-3.5L685.8,485
						c-0.3-0.3-0.6-0.7-0.9-1c-0.9-1.1-1.6-2.5-2-3.9s-0.6-3-0.4-4.5c0.2-2.7,1.3-5.3,3.4-7.3l12.3-12.3
						C700.4,453.8,703.4,452.6,706.5,452.6 M706.5,442.6c-5.8,0-11.3,2.3-15.5,6.4l-12.3,12.3c-3.6,3.6-5.8,8.4-6.3,13.5l0,0l0,0
						c-0.2,2.8,0.1,5.7,0.9,8.2c0.8,2.7,2.1,5.1,3.8,7.2l0.3,0.4l0.2,0.2c0.2,0.3,0.6,0.7,1,1.2l12.3,12.3c4.1,4.1,9.6,6.4,15.5,6.4
						c5.8,0,11.3-2.3,15.5-6.4l12.3-12.3c0.5-0.5,1.3-1.3,2-2.3c1.7-2.4,2.9-4.7,3.5-7c0.7-2.5,1-5.2,0.8-7.9l0,0l0,0
						c-0.4-5.1-2.6-9.9-6.3-13.5L722,449C717.9,444.8,712.4,442.6,706.5,442.6L706.5,442.6z"/>
				</g>
			</g>
		</g>
		<g>
			<g>
				<g>
					<path class="st1" d="M706.6,519.4c-6.2,0-12.2-2.5-16.6-7l-12.3-12.3c-4.3-4.2-6.8-9.9-6.9-16v-8.6v-0.1
						c0.3-5.7,2.7-11.1,6.8-15.3l12.3-12.3c4.3-4.5,10.3-6.9,16.6-6.9c6.2,0,12.2,2.5,16.6,6.9l12.3,12.3c3.9,3.8,6.4,9,6.8,14.7
						l0.3,0.9v8.4v0.1c-0.3,6-2.8,11.6-6.9,15.8l-12.3,12.4C718.9,516.9,713,519.4,706.6,519.4z M689,481.2c0.1,0.1,0.2,0.2,0.3,0.3
						l12.3,12.3c1.3,1.3,3,2,4.9,2c1.8,0,3.6-0.7,4.9-2l12.3-12.3c0,0,0.1-0.1,0.1-0.2c0.2-0.2,0.3-0.4,0.5-0.6
						c0.4-0.6,0.8-1.3,1-2.1c0.2-0.7,0.3-1.7,0.2-2.6c-0.1-1.6-0.8-3-1.9-4.1l-12.3-12.3c-1.3-1.3-3-2-4.9-2c-1.8,0-3.6,0.7-4.9,2
						l-12.3,12.3c-1.1,1.1-1.8,2.6-1.9,4.2c-0.1,0.9,0,1.9,0.2,2.6v0.1v0.1C687.8,479.2,688.1,479.9,689,481.2L689,481.2z"/>
					<path class="st1" d="M706.5,445.8c4.7,0,9.5,1.9,13.1,5.5l12.3,12.3c3.4,3.2,5.1,7.6,5.4,12l0.2,0.8v0.7v6v0.7v0.2
						c-0.2,4.6-2,9.1-5.5,12.5l-12.3,12.3c-3.6,3.7-8.3,5.5-13.1,5.5c-4.7,0-9.5-1.9-13.1-5.5l-12.3-12.3c-3.6-3.5-5.4-7.9-5.5-12.5
						v-0.6v-6.7v-1.1c0.2-4.4,2-8.6,5.4-12l12.3-12.3C697,447.6,701.7,445.8,706.5,445.8 M706.5,500.8c3.1,0,6.2-1.2,8.4-3.5
						l12.3-12.3c0.3-0.3,0.6-0.7,0.9-1c0.9-1.1,1.6-2.5,2-3.9c0.4-1.5,0.6-3,0.4-4.5c-0.2-2.7-1.3-5.3-3.4-7.3L714.9,456
						c-2.2-2.2-5.3-3.5-8.4-3.5c-3.1,0-6.2,1.2-8.4,3.5l-12.3,12.3c-2,2-3.1,4.6-3.4,7.3c-0.1,1.5,0,3,0.4,4.5
						c0.3,1.3,1.1,2.7,2,3.9c0.2,0.3,0.6,0.7,0.9,1l12.3,12.3C700.4,499.6,703.4,500.8,706.5,500.8 M706.5,435.8
						c-7.7,0-14.9,3-20.2,8.5L674,456.6c-5,5-7.9,11.6-8.3,18.5v0.3v0.3v1.1v6.7v0.6v0.1v0.1c0.2,7.4,3.2,14.3,8.5,19.4l12.3,12.3
						c5.3,5.3,12.7,8.4,20.2,8.4c7.7,0,14.9-3,20.2-8.5l12.3-12.3c5.1-5.1,8-11.9,8.4-19.1v-0.2V484v-0.2v-0.7v-6v-0.7V475l-0.3-1.2
						c-0.6-6.6-3.5-12.7-8.3-17.3l-12.3-12.3C721.3,438.9,714,435.8,706.5,435.8L706.5,435.8z M692.4,476.4c0.1-0.6,0.4-0.9,0.5-1
						l12.3-12.3c0.3-0.3,0.8-0.5,1.3-0.5s1,0.2,1.3,0.5l12.3,12.3c0.1,0.1,0.4,0.4,0.5,1c0,0.4,0,0.7,0,0.7
						c-0.1,0.3-0.2,0.4-0.2,0.5c-0.2,0.2-0.3,0.3-0.4,0.4l-12.2,12.2c-0.3,0.3-0.8,0.5-1.3,0.5s-1-0.2-1.3-0.5L692.9,478l0,0
						c-0.2-0.2-0.3-0.4-0.3-0.5l0,0l-0.1-0.3C692.4,477.1,692.4,476.8,692.4,476.4L692.4,476.4z"/>
				</g>
			</g>
		</g>
		<g>
			<g>
				<g>
					<path class="st1" d="M706.4,492.4c-2.9,0-5.5-1.1-7.5-3.2l-5-5c-2.1-2.1-3.2-4.8-3.1-7.7c0-2.8,1.2-5.4,3.2-7.4l5-5
						c2-2,4.7-3.1,7.6-3.1c2.9,0,5.5,1.1,7.5,3.2l5.1,5.1c4,4.2,3.9,10.9-0.1,14.9l-5,5C712,491.3,709.3,492.4,706.4,492.4z"/>
					<path class="st1" d="M706.5,466c1.4,0,2.9,0.6,3.9,1.7l5,5c2.1,2.2,2.1,5.8,0,7.9l-5,5c-1.1,1.1-2.6,1.7-4,1.7
						s-2.9-0.6-3.9-1.7l-5-5c-2.2-2.2-2.2-5.8,0-7.9l5-5C703.6,466.6,705.1,466,706.5,466 M706.5,456c-4.2,0-8.1,1.6-11.1,4.6l-5,5
						c-3,2.9-4.6,6.7-4.7,10.9c-0.1,4.2,1.6,8.3,4.6,11.3l5,5c2.9,3,6.9,4.7,11.1,4.7c4.2,0,8.1-1.6,11.1-4.6l5-5
						c5.9-5.9,6-15.8,0.2-21.9l-0.1-0.1l-0.1-0.1l-5-5C714.7,457.7,710.7,456,706.5,456L706.5,456z"/>
				</g>
			</g>
		</g>
	</g>
</g>
<g>
	<g>
		<g>
			<path class="st3" d="M335.4,672.1c-9,0-16.2-7.3-16.2-16.2V290.1c0-9,7.3-16.2,16.2-16.2h480.1c9,0,16.2,7.3,16.2,16.2v365.7
				c0,9-7.3,16.2-16.2,16.2L335.4,672.1L335.4,672.1z"/>
		</g>
		<g>
			<path d="M815.6,276.7c7.4,0,13.4,6,13.4,13.4v365.7c0,7.4-6,13.4-13.4,13.4H335.4c-7.4,0-13.4-6-13.4-13.4V290.1
				c0-7.4,6-13.4,13.4-13.4H815.6 M815.6,271.1H335.4c-10.5,0-19,8.5-19,19v365.7c0,10.5,8.5,19,19,19h480.1c10.5,0,19-8.5,19-19
				V290.1C834.6,279.6,826,271.1,815.6,271.1L815.6,271.1z"/>
		</g>
	</g>
	<g>
		<path class="st4" d="M775,403.8H376c-7.4,0-13.4,6-13.4,13.4v133.9c0,7.4,6,13.4,13.4,13.4h399.1c7.4,0,13.4-6,13.4-13.4V417.2
			C788.5,409.8,782.4,403.8,775,403.8z"/>
		<path d="M775,567.3H376c-9,0-16.2-7.3-16.2-16.2V417.2c0-9,7.3-16.2,16.2-16.2h399.1c9,0,16.2,7.3,16.2,16.2v133.9
			C791.3,560,784,567.3,775,567.3z M376,406.6c-5.8,0-10.6,4.8-10.6,10.6v133.9c0,5.8,4.8,10.6,10.6,10.6h399.1
			c5.8,0,10.6-4.8,10.6-10.6V417.2c0-5.8-4.8-10.6-10.6-10.6H376z"/>
	</g>
	<g>
		<g>
			<path class="st5" d="M1098.8,634.9c-12.4,0-22.3-12.3-26.3-32.8v-0.2v-218l4.7,4.1c43.4,38.3,67.7,92.1,66.9,147.9
				c-0.3,20.9-4,41.5-11.1,61.1C1124.3,621.2,1111.9,634.9,1098.8,634.9z"/>
		</g>
		<g>
			<g>
				<path d="M1075.2,390.1c41.2,36.3,66.8,88.4,65.9,145.8c-0.3,21-4.1,41.3-11,60.2c-8.8,24.7-20.8,36-31.5,36
					c-10.4,0-19.7-10.9-23.6-30.6L1075.2,390.1 M1069.6,377.7v12.4v211.5v0.6l0.1,0.6c4.4,21.9,15.2,35,29.1,35
					c14.3,0,27.7-14.4,36.7-39.7c7.2-19.9,11-40.9,11.3-62.1c0.9-56.5-23.8-111.2-67.8-150L1069.6,377.7L1069.6,377.7z"/>
			</g>
		</g>
	</g>
	<g>
		<path class="st6" d="M1078.3,792.5c0-104.8-55.7-189.6-124.5-189.6s-124.5,85-124.5,189.6S1078.3,897.3,1078.3,792.5z"/>
		<path d="M953.8,873.9c-33.1,0-64-7.1-87-20c-26.4-14.8-40.3-36-40.3-61.3c0-51.2,13.1-99.3,36.9-135.6
			c24.1-36.6,56.2-56.9,90.3-56.9c34.3,0,66.3,20.1,90.3,56.8c23.8,36.3,36.9,84.4,36.9,135.7c0,25.3-14,46.6-40.3,61.3
			C1017.8,866.8,986.9,873.9,953.8,873.9z M953.8,605.7c-67.1,0-121.7,83.8-121.7,186.8c0,29.3,20.4,46.9,37.5,56.4
			c22.2,12.4,52.1,19.3,84.3,19.3c32.1,0,62-6.8,84.2-19.3c17.1-9.6,37.5-27.2,37.5-56.4C1075.5,689.5,1020.9,605.7,953.8,605.7z"/>
	</g>
	<g>
		<g>
			<path class="st7" d="M833.5,864.7c-6.6,0-12.9-3.6-16.8-9.4c-1,0.1-2,0.2-2.9,0.2H632.2c-11.5,0-20.8-10.3-20.8-23.1V721.1
				c0-12.8,9.4-23.1,20.8-23.1h181.6c11.5,0,20.8,10.3,20.8,23.1c0,8.4,2.9,16.3,8.2,22.2c5.1,5.8,12.1,9.1,19.4,9.1
				c21.6,0,46.8,0,46.8,0c11.5,0,20.8,10.3,20.8,23.1v66.3c0,12.8-9.4,23.1-20.8,23.1L833.5,864.7L833.5,864.7z"/>
		</g>
		<g>
			<path d="M813.8,701c10,0,18,9.1,18,20.3l0,0c0,18.8,13.5,34,30.3,34l0,0c21.6,0,46.8,0,46.8,0c10,0,18,9.1,18,20.3v66.3
				c0,11.2-8.2,20.3-18,20.3h-75.5c-6.5,0-12.2-3.9-15.3-9.7c-1.3,0.3-2.8,0.6-4.3,0.6H632.2c-10,0-18-9.1-18-20.3V721.2
				c0-11.2,8.2-20.3,18-20.3L813.8,701 M813.8,695.4H632.2c-13,0-23.6,11.6-23.6,25.9v111.4c0,14.2,10.6,25.9,23.6,25.9h181.6
				c0.6,0,1.1,0,1.7-0.1c4.5,5.8,11.1,9.2,18,9.2H909c13,0,23.6-11.6,23.6-25.9v-66.3c0-14.2-10.6-25.9-23.6-25.9c0,0-25.2,0-46.8,0
				c-13.7,0-24.7-12.8-24.7-28.4C837.4,706.9,826.8,695.4,813.8,695.4L813.8,695.4z"/>
		</g>
	</g>
	<g>
		<g>
			<path class="st4" d="M1136.4,766.6h-0.9c-22.9,0-41.8-18.8-41.8-41.8v-0.9c0-22.9,18.8-41.8,41.8-41.8h0.9
				c22.9,0,41.8,18.8,41.8,41.8v0.9C1178.1,747.8,1159.3,766.6,1136.4,766.6z"/>
			<path d="M1136.4,769.4h-0.9c-24.5,0-44.6-20-44.6-44.6v-0.9c0-24.5,20-44.6,44.6-44.6h0.9c24.5,0,44.6,20,44.6,44.6v0.9
				C1180.9,749.3,1160.9,769.4,1136.4,769.4z M1135.5,685c-21.5,0-39,17.5-39,39v0.9c0,21.5,17.5,39,39,39h0.9c21.5,0,39-17.5,39-39
				V724c0-21.5-17.5-39-39-39H1135.5z"/>
		</g>
		<g>
			<g>
				<path class="st8" d="M1131.2,776.2c-0.8,0-1.5-0.1-2.2-0.2c-37.1-6.2-63-27.4-63-51.7c0-24.2,26-45.4,63-51.7
					c0.7-0.1,1.5-0.2,2.2-0.2c7.1,0,12.8,5.6,12.8,12.4v79c0,3.4-1.3,6.5-3.8,8.8C1137.7,775,1134.6,776.2,1131.2,776.2
					L1131.2,776.2z"/>
			</g>
			<g>
				<path d="M1131.2,675.2c5.4,0,10,4.3,10,9.6v79c0,5.4-4.6,9.6-10,9.6c-0.6,0-1.1,0-1.7-0.1c-34.9-5.8-60.7-25.5-60.7-48.9
					s25.7-43.1,60.7-48.9C1130.1,675.3,1130.7,675.2,1131.2,675.2 M1131.2,669.6c-0.9,0-1.8,0.1-2.7,0.2c-18,3-34.4,9.7-46,19
					c-12.4,10-19.4,22.5-19.4,35.5s6.8,25.5,19.4,35.5c11.6,9.3,28,16,46,19c0.9,0.1,1.8,0.2,2.7,0.2c8.6,0,15.6-6.8,15.6-15.2v-79
					C1146.8,676.5,1139.9,669.6,1131.2,669.6L1131.2,669.6z"/>
			</g>
		</g>
		<g>
			<g>
				<g>
					<path class="st7" d="M1023,758.6c-12,0-21.7-9.7-21.7-21.7s9.7-21.7,21.7-21.7h29.3c12,0,21.7,9.7,21.7,21.7
						s-9.7,21.7-21.7,21.7H1023z"/>
				</g>
				<g>
					<g>
						<path d="M1052.3,718c10.4,0,18.9,8.5,18.9,18.9l0,0c0,10.4-8.5,18.9-18.9,18.9H1023c-10.4,0-18.9-8.5-18.9-18.9l0,0
							c0-10.4,8.5-18.9,18.9-18.9H1052.3 M1052.3,712.4H1023c-13.5,0-24.5,11-24.5,24.5s11,24.5,24.5,24.5h29.3
							c13.5,0,24.5-11,24.5-24.5S1065.9,712.4,1052.3,712.4L1052.3,712.4z"/>
					</g>
				</g>
			</g>
			<g>
				<g>
					<path class="st5" d="M1101.5,868.4c-9.4,0-17.8-6-20.7-15L1035.2,714c-3.7-11.4,2.6-23.7,13.9-27.4c2.1-0.7,4.5-1.1,6.7-1.1
						c9.5,0,17.8,6,20.7,15l45.7,139.4c1.8,5.5,1.3,11.4-1.3,16.6s-7.2,9.1-12.6,10.9C1106.1,868.1,1103.8,868.4,1101.5,868.4z"/>
				</g>
				<g>
					<path d="M1055.9,688.3c7.9,0,15.4,5,18,13.1l45.6,139.4c3.2,9.9-2.2,20.6-12.1,23.8c-1.9,0.7-3.9,0.9-5.8,0.9
						c-7.9,0-15.4-5-18-13.1L1038,713c-3.2-9.9,2.2-20.6,12.1-23.8C1052,688.7,1054,688.3,1055.9,688.3 M1055.9,682.7L1055.9,682.7
						c-2.6,0-5.1,0.4-7.6,1.2c-12.9,4.3-19.9,18.1-15.7,30.9l45.4,139.5c3.4,10.1,12.6,16.9,23.4,16.9c2.6,0,5.1-0.4,7.6-1.2
						c6.2-2,11.3-6.4,14.2-12.2c3-5.8,3.5-12.5,1.5-18.7l-45.6-139.4C1075.9,689.5,1066.5,682.7,1055.9,682.7L1055.9,682.7z"/>
				</g>
			</g>
		</g>
	</g>
	<g>
		<circle class="st9" cx="992.2" cy="736.9" r="30.1"/>
		<path d="M992.2,769.8c-18.1,0-32.9-14.8-32.9-32.9s14.8-32.9,32.9-32.9c18.1,0,32.9,14.8,32.9,32.9
			C1025.1,755,1010.3,769.8,992.2,769.8z M992.2,709.6c-15.1,0-27.3,12.2-27.3,27.3s12.2,27.3,27.3,27.3s27.3-12.2,27.3-27.3
			S1007.3,709.6,992.2,709.6z"/>
	</g>
	<g>
		<path class="st6" d="M873.5,642.2L873.5,642.2c-0.4,0.8-0.9,1.7-1.3,2.5c-32.9,65.2,17.8,138.5,102.4,149.8l10.5,1.5v-98
			l-21.3-1.8C924.1,693,889.6,672.3,873.5,642.2L873.5,642.2z"/>
		<path d="M985.2,798.7c-0.1,0-0.2,0-0.3,0l-10.5-1.5c-46.2-6.2-85-31-103.7-66.6c-14.8-28.1-15.1-59-0.9-87.2c0,0,0-0.1,0.1-0.1
			c0.2-0.3,0.4-0.8,0.7-1.1c0.2-0.4,0.4-0.9,0.7-1.3c0.6-0.9,1.5-1.5,2.5-1.5s1.9,0.6,2.5,1.5c15.6,29.3,49.4,49.5,88.1,52.5
			l21.3,1.8c1.5,0.1,2.6,1.3,2.6,2.8v98c0,0.8-0.3,1.6-1,2.1C986.5,798.5,985.8,798.7,985.2,798.7z M873.7,648
			c-12.3,26-11.8,54.3,1.9,79.9c17.9,33.9,55.1,57.8,99.5,63.7l7.4,1v-92.1l-18.7-1.6C925,695.9,891.1,676.6,873.7,648z"/>
	</g>
	<g>
		<path class="st9" d="M1108.4,437c-1,0-98.1-36.6-154.8-36.6c-57.5,0-153.8,37.7-154.1,37.7c-19.5,0-20.1,42.8-20.1,95.6
			c0,25.5,3.7,48.7,9.6,65.8c10.2,42,79.9,74.4,164.7,74.4c82.7,0,151.3-31,163.9-71.6c6.8-17.5,11.1-42.2,11.1-69.7
			C1128.4,479.8,1127.8,437,1108.4,437z"/>
		<path d="M953.6,676.8c-41.2,0-80.7-7.7-111.5-21.7c-30.9-14.1-50.7-33.5-55.9-54.7c-6.3-18.2-9.7-41.9-9.7-66.6
			c0-52.4,0-97.7,22.4-98.4c0.2-0.1,0.6-0.2,1-0.3c30-11.2,105-37.4,153.7-37.4c23.1,0,68.1,6.2,151.6,35.4c1.6,0.6,3,1,3.6,1.2
			c22.3,0.6,22.4,45.9,22.5,98.4c0,27-4,52.1-11.2,70.6C1106.8,645.9,1036.9,676.8,953.6,676.8z M953.6,403.2
			c-49.1,0-128.5,28.3-151.7,37.1c-1.9,0.7-1.9,0.7-2.5,0.7c-17.4,0-17.4,49.3-17.4,92.8c0,24.2,3.4,47.2,9.5,64.9l0.1,0.2
			c10,41.2,79.6,72.3,162,72.3c39.4,0,77.5-7.3,107.1-20.4c29-12.8,48.2-30.3,54.1-49.4l0.1-0.2c7.1-17.9,10.9-42.3,10.9-68.7
			c-0.1-45.7-0.2-92.8-17.4-92.8c-0.6,0-0.6,0-5-1.6C1020.5,409.2,976.2,403.2,953.6,403.2z"/>
	</g>
	<g>
		<path class="st10" d="M1128.4,469.2c0-63.6-45.7-131.8-174.6-131.8c-129.1,0-174.6,68.2-174.6,131.8c0,20.1,26.4,34.5,67.5,42.9
			l11.2-27.8l12.8,31.8c19.3,2.7,40.7,4.3,63.5,4.8l19.8-49.3l19.8,49.3c23.4-0.6,45.4-2.2,65.2-5l12.6-31.6l11,27.5
			C1102.7,503.4,1128.4,489.2,1128.4,469.2z"/>
	</g>
	<g>
		<path class="st6" d="M982.8,608.4c0,16.8-13,30.3-29,30.3s-29-13.5-29-30.3c20,0,13,0,29,0S971.9,608.4,982.8,608.4z"/>
		<path d="M953.8,641.5c-17.6,0-31.8-14.9-31.8-33.1c0-1.6,1.2-2.8,2.8-2.8h58c1.6,0,2.8,1.2,2.8,2.8
			C985.6,626.6,971.4,641.5,953.8,641.5z M927.7,611.2c1.3,13.9,12.5,24.7,26.1,24.7s24.7-10.9,26.1-24.7H927.7z"/>
	</g>
	<g>
		<path d="M855.7,539.4c-19.4,0-35.2,15.8-35.2,35.2c0,4.7,3.7,8.4,8.4,8.4s8.4-3.7,8.4-8.4c0-10.1,8.3-18.4,18.4-18.4
			c10.1,0,18.4,8.3,18.4,18.4c0,4.7,3.7,8.4,8.4,8.4s8.4-3.7,8.4-8.4C890.9,555.2,875.1,539.4,855.7,539.4z"/>
		<path d="M1052,539.4c-19.4,0-35.2,15.8-35.2,35.2c0,4.7,3.7,8.4,8.4,8.4c4.7,0,8.4-3.7,8.4-8.4c0-10.1,8.3-18.4,18.4-18.4
			c10.1,0,18.4,8.3,18.4,18.4c0,4.7,3.7,8.4,8.4,8.4c4.7,0,8.4-3.7,8.4-8.4C1087.1,555.2,1071.4,539.4,1052,539.4z"/>
	</g>
	<g>
		<g>
			<path class="st5" d="M652.1,883.9c-8.5,0-15.3-6.9-15.3-15.3v-12.8c0-8.5,6.9-15.3,15.3-15.3h461.2c8.5,0,15.3,6.9,15.3,15.3
				v12.8c0,8.5-6.9,15.3-15.3,15.3H652.1z"/>
		</g>
		<g>
			<path d="M1113.3,843.1c6.9,0,12.5,5.6,12.5,12.5v12.8c0,6.9-5.6,12.5-12.5,12.5H652.1c-6.9,0-12.5-5.6-12.5-12.5v-12.8
				c0-6.9,5.6-12.5,12.5-12.5H1113.3 M1113.3,837.5H652.1c-10,0-18.1,8.2-18.1,18.1v12.8c0,10,8.2,18.1,18.1,18.1h461.2
				c10,0,18.1-8.2,18.1-18.1v-12.8C1131.5,845.7,1123.4,837.5,1113.3,837.5L1113.3,837.5z"/>
		</g>
	</g>
	<g>
		<g>
			<g>
				<g>
					<path class="st8" d="M416.6,723.8c-13.2,0-24-10.7-24-24v-3.5c0-13.2,10.7-24,24-24h319.9c13.2,0,24,10.7,24,24v3.5
						c0,13.2-10.7,24-24,24H416.6z"/>
				</g>
				<g>
					<path d="M736.6,675.2c11.6,0,21.2,9.5,21.2,21.2v3.5c0,11.6-9.5,21.2-21.2,21.2h-320c-11.6,0-21.2-9.5-21.2-21.2v-3.5
						c0-11.6,9.5-21.2,21.2-21.2H736.6 M736.6,669.6h-320c-14.8,0-26.8,12-26.8,26.8v3.5c0,14.8,12,26.8,26.8,26.8h319.9
						c14.8,0,26.8-12,26.8-26.8v-3.5C763.4,681.6,751.3,669.6,736.6,669.6L736.6,669.6z"/>
				</g>
			</g>
		</g>
		<g>
			<g>
				<path class="st11" d="M1103.3,960.9c-40.7,0-73.9-33.1-73.9-73.9c0-40.7,33.1-73.9,73.9-73.9c40.7,0,73.9,33.1,73.9,73.9
					S1144,960.9,1103.3,960.9z"/>
			</g>
			<g>
				<path d="M1103.3,815.9c39.3,0,71.1,31.8,71.1,71.1s-31.8,71.1-71.1,71.1c-39.3,0-71.1-31.8-71.1-71.1S1064,815.9,1103.3,815.9
					 M1103.3,810.3c-42.3,0-76.7,34.4-76.7,76.7s34.4,76.7,76.7,76.7c42.3,0,76.7-34.4,76.7-76.7S1145.6,810.3,1103.3,810.3
					L1103.3,810.3z"/>
			</g>
		</g>
		<g>
			<circle class="st12" cx="1103.3" cy="887" r="43.9"/>
		</g>
		<g>
			<circle class="st13" cx="1103.3" cy="887" r="25.1"/>
		</g>
		<g>
			<g>
				<path class="st8" d="M1029.6,889.8c-6.2,0-11.8-2.9-15.3-8.1c-3.5-5-4.4-11.5-2.1-17.2c14.1-37.8,50.7-63.4,91.1-63.4
					s77,25.4,91.1,63.4c2.1,5.7,1.3,12.2-2.1,17.2c-3.6,5.1-9.2,8.1-15.3,8.1H1029.6z"/>
			</g>
			<g>
				<path d="M1103.1,804.1c40.5,0,75.1,25.6,88.5,61.5c3.9,10.4-3.8,21.5-14.9,21.5h-147.1c-11.1,0-18.8-11.1-14.9-21.5
					C1028,829.6,1062.6,804.1,1103.1,804.1 M1103.1,798.5c-20.8,0-40.7,6.4-57.7,18.4c-16.6,11.8-29,27.9-36,46.8
					c-2.5,6.6-1.6,14,2.5,19.8c4,5.8,10.6,9.2,17.7,9.2h147.2c7.1,0,13.7-3.5,17.7-9.2c4-5.8,4.9-13.2,2.5-19.8
					c-7.1-18.9-19.5-35.2-36-46.8C1143.9,804.7,1124,798.5,1103.1,798.5L1103.1,798.5z"/>
			</g>
		</g>
		<g>
			<g>
				<path class="st11" d="M712.3,960.9c-40.7,0-73.9-33.1-73.9-73.9c0-40.7,33.1-73.9,73.9-73.9s73.9,33.1,73.9,73.9
					S753.1,960.9,712.3,960.9z"/>
			</g>
			<g>
				<path d="M712.3,815.9c39.3,0,71.1,31.8,71.1,71.1s-31.8,71.1-71.1,71.1s-71-31.8-71-71.1S673.1,815.9,712.3,815.9 M712.3,810.3
					c-42.3,0-76.7,34.4-76.7,76.7s34.4,76.7,76.7,76.7S789,929.3,789,887S754.6,810.3,712.3,810.3L712.3,810.3z"/>
			</g>
		</g>
		<g>
			<circle class="st12" cx="712.3" cy="887" r="43.9"/>
		</g>
		<g>
			<circle class="st13" cx="712.3" cy="887" r="25.1"/>
		</g>
		<g>
			<g>
				<path class="st8" d="M634.9,889.8c-6.2,0-12.1-2.8-16.2-7.6c-4.4-5.1-6.2-11.9-5-18.5c12-71.3,52.5-121.1,98.6-121.1
					s86.6,49.8,98.6,121.1c1.1,6.7-0.7,13.4-5,18.5c-4.1,4.8-10,7.6-16.2,7.6H634.9z"/>
			</g>
			<g>
				<path d="M712.2,745.3c45.8,0,84.4,50.4,95.8,118.8c2,12-6.8,22.8-18.5,22.8H634.9c-11.6,0-20.5-11-18.5-22.8
					C627.9,795.7,666.5,745.3,712.2,745.3 M712.2,739.7c-12.2,0-24.1,3.2-35.5,9.6c-10.7,6-20.8,14.9-29.8,26.2
					c-17.6,22.2-30.4,53.3-36.2,87.7c-1.2,7.5,0.8,15.1,5.7,20.8c4.6,5.5,11.3,8.6,18.4,8.6h154.6c7.1,0,13.8-3.1,18.4-8.6
					c4.8-5.7,6.9-13.3,5.7-20.8c-5.7-34.4-18.6-65.5-36.2-87.7c-9-11.3-18.9-20.1-29.8-26.2C736.4,742.9,724.4,739.7,712.2,739.7
					L712.2,739.7z"/>
			</g>
		</g>
		<g>
			<path class="st14" d="M725.2,871.1H652c-5,0-9.2-4.1-9.2-9.2l0,0c0-5,4.1-9.2,9.2-9.2h73.2c5,0,9.2,4.1,9.2,9.2l0,0
				C734.4,867,730.3,871.1,725.2,871.1z"/>
		</g>
		<g>
			<path class="st14" d="M725.2,837.5H652c-5,0-9.2-4.1-9.2-9.2l0,0c0-5,4.1-9.2,9.2-9.2h73.2c5,0,9.2,4.1,9.2,9.2l0,0
				C734.4,833.4,730.3,837.5,725.2,837.5z"/>
		</g>
		<g>
			<path class="st4" d="M456.3,740.3L456.3,740.3c-9.7,0-17.7-7.9-17.7-17.7v-68.4c0-9.7,7.9-17.7,17.7-17.7l0,0
				c9.7,0,17.7,7.9,17.7,17.7v68.4C474,732.3,466.1,740.3,456.3,740.3z"/>
			<path d="M456.3,743.1c-11.3,0-20.5-9.2-20.5-20.5v-68.4c0-11.3,9.2-20.5,20.5-20.5s20.5,9.2,20.5,20.5v68.4
				C476.8,733.9,467.6,743.1,456.3,743.1z M456.3,639.3c-8.2,0-14.9,6.7-14.9,14.9v68.4c0,8.2,6.7,14.9,14.9,14.9
				s14.9-6.7,14.9-14.9v-68.4C471.2,646,464.5,639.3,456.3,639.3z"/>
		</g>
		<g>
			<path class="st4" d="M575.3,740.3L575.3,740.3c-9.7,0-17.7-7.9-17.7-17.7v-68.4c0-9.7,7.9-17.7,17.7-17.7l0,0
				c9.7,0,17.7,7.9,17.7,17.7v68.4C593.1,732.3,585.1,740.3,575.3,740.3z"/>
			<path d="M575.3,743.1c-11.3,0-20.5-9.2-20.5-20.5v-68.4c0-11.3,9.2-20.5,20.5-20.5s20.5,9.2,20.5,20.5v68.4
				c0.1,5.4-2,10.5-5.8,14.3C586.1,740.9,580.8,743.1,575.3,743.1z M575.3,639.3c-8.2,0-14.9,6.7-14.9,14.9v68.4
				c0,8.2,6.7,14.9,14.9,14.9c4,0,7.8-1.6,10.6-4.5c2.8-2.8,4.3-6.5,4.3-10.4v-68.4C590.2,646,583.5,639.3,575.3,639.3z"/>
		</g>
		<g>
			<path class="st4" d="M694.4,740.3L694.4,740.3c-9.7,0-17.7-7.9-17.7-17.7v-68.4c0-9.7,7.9-17.7,17.7-17.7l0,0
				c9.7,0,17.7,7.9,17.7,17.7v68.4C712.1,732.3,704.2,740.3,694.4,740.3z"/>
			<path d="M694.4,743.1c-11.3,0-20.5-9.2-20.5-20.5v-68.4c0-11.3,9.2-20.5,20.5-20.5s20.5,9.2,20.5,20.5v68.4
				C714.9,733.9,705.7,743.1,694.4,743.1z M694.4,639.3c-8.2,0-14.9,6.7-14.9,14.9v68.4c0,8.2,6.7,14.9,14.9,14.9
				s14.9-6.7,14.9-14.9v-68.4C709.3,646,702.6,639.3,694.4,639.3z"/>
		</g>
	</g>
	<g>
		<g>
			<path class="st8" d="M785.8,633.2c-13,0-25.4-13.8-34-37.8c-7.1-19.6-10.7-40.2-11.1-61.1c-1-67.1,14.2-115.6,46.6-148.4
				c16.5-16.7,37.6-29.4,63-38.1c27.1-9.2,59.9-13.8,97.5-13.8c126.6,0,139,25.6,158.1,64.5c4.4,8.8,8.8,18,15.1,28h30.3
				c14.3,0,26,11.6,26,26c0,14.3-11.6,26-26,26c-1.6,0-156.9-0.1-256.7-0.1c-53.8,0-74.4,0-81,0.1l0.9,98.8
				C814.3,615.9,800,633.2,785.8,633.2z"/>
		</g>
		<g>
			<path d="M947.7,336.8c154.4,0,136,37.3,171.6,92.5h31.8c12.8,0,23.2,10.4,23.2,23.2l0,0c0,12.8-10.4,23.2-23.2,23.2
				c0,0-155.8-0.1-256.7-0.1c-48.2,0-84,0-84,0.1l1,101.6c0,34-11.8,53.2-25.6,53.2c-10.6,0-22.6-11.3-31.5-36
				c-6.8-18.9-10.6-39.2-11-60.2C741.8,426.1,781.4,336.8,947.7,336.8 M947.7,331.2c-37.9,0-71,4.7-98.4,13.9
				c-25.7,8.7-47.4,21.7-64,38.7c-32.9,33.4-48.4,82.6-47.4,150.5c0.3,21.3,4.1,42.1,11.3,62.1c9.1,25.3,22.4,39.7,36.7,39.7
				c9.2,0,17.4-6,23.1-16.9c5.4-10.4,8.3-25,8.3-42l-0.9-96c8.8,0,30.3-0.1,78.2-0.1c99.7,0,255.1,0.1,256.7,0.1
				c15.9,0,28.8-12.9,28.8-28.8s-12.9-28.8-28.8-28.8h-28.8c-5.8-9.3-10-18-14.1-26.4c-9.6-19.7-17.9-36.6-40.4-48.4
				C1044.4,336.6,1007.3,331.2,947.7,331.2L947.7,331.2z"/>
		</g>
	</g>
	<g>
		<g>
			<g>
				<path class="st15" d="M475.1,499c0,1.8-0.8,3.4-2.2,4.7c-1.5,1.2-3.1,1.9-5,1.9c-1.2,0-2.5-0.3-3.5-1s-1.9-1.7-2.5-3l-3.8-8.4
					H431l-3.8,8.4c-0.6,1.3-1.5,2.4-2.6,3c-1.1,0.7-2.2,1-3.6,1c-1.9,0-3.6-0.7-5.1-1.9c-1.6-1.2-2.4-2.8-2.4-4.7c0-1,0.2-2,0.8-3.1
					l22.1-45.2c0.7-1.5,1.8-2.7,3.2-3.5c1.5-0.8,3-1.2,4.7-1.2s3.2,0.4,4.7,1.2c1.5,0.8,2.6,2,3.2,3.5l22.1,45.2
					C474.8,497,475.1,498,475.1,499z M452.9,481.7l-8.4-18.6l-8.4,18.6H452.9z"/>
			</g>
			<g>
				<path class="st15" d="M511.1,464.8c1.1,1,1.7,2.6,1.7,4.6c0,2.2-0.6,3.8-1.6,4.8s-2.9,1.7-5.6,1.9l-2.5,0.2
					c-2.8,0.3-4.8,1.2-5.9,2.7c-1.2,1.5-1.8,3.4-1.8,5.8v14.3c0,2.2-0.7,4-2.1,5.1s-3.1,1.7-5.3,1.7s-3.9-0.6-5.3-1.7
					c-1.5-1.1-2.1-2.8-2.1-5.1v-28.9c0-2.1,0.7-3.8,2.1-4.9s3.1-1.8,5.1-1.8s3.7,0.6,4.9,1.7c1.2,1.1,1.9,2.7,1.9,4.7v1.6
					c0.9-2.5,2.4-4.4,4.4-5.7c2-1.3,4.1-2,6.4-2.1l1.1-0.1C508.5,463.3,510,463.8,511.1,464.8z"/>
			</g>
			<g>
				<path class="st15" d="M517,455.7c-1.5-1.3-2.2-3-2.2-5.3c0-2.1,0.8-3.9,2.2-5.1c1.5-1.2,3.5-1.9,5.9-1.9c2.5,0,4.5,0.7,5.9,1.9
					c1.5,1.2,2.2,3,2.2,5.1s-0.8,3.9-2.2,5.3c-1.5,1.3-3.5,2-5.9,2C520.5,457.6,518.5,456.9,517,455.7z M517.7,504.2
					c-1.5-1.1-2.1-2.8-2.1-5.1v-28.7c0-2.2,0.7-4,2.1-5.1c1.4-1.1,3.1-1.7,5.3-1.7c2.1,0,3.9,0.6,5.3,1.7c1.5,1.1,2.1,2.8,2.1,5.1
					v28.8c0,2.2-0.7,4-2.1,5.1c-1.5,1.1-3.1,1.7-5.3,1.7C520.8,506,519,505.4,517.7,504.2z"/>
			</g>
			<g>
				<path class="st15" d="M580.8,465.3c1.3,1.2,2,2.9,2,4.9v30.1c0,6.8-2,12-6.2,15.4c-4.1,3.5-10.1,5.3-18,5.3
					c-3,0-5.9-0.2-8.7-0.8c-2.7-0.6-5-1.3-6.9-2.5c-1-0.6-1.8-1.2-2.4-2.1c-0.6-0.9-0.9-1.9-0.9-3c0-1.6,0.4-2.9,1.2-3.9
					c0.8-1,1.9-1.5,3.1-1.5c1,0,2.8,0.4,5.5,1.2c1.7,0.6,3.2,1,4.6,1.3c1.4,0.3,2.7,0.4,4.1,0.4c3.4,0,5.9-0.7,7.5-2.1
					c1.6-1.5,2.4-3.7,2.4-6.7v-3.1c-1.2,1.8-3,3.2-5.3,4.4s-4.8,1.7-7.4,1.7c-3.6,0-6.7-0.8-9.5-2.5s-4.9-4-6.5-7.2
					c-1.6-3.2-2.4-6.7-2.4-10.7s0.8-7.6,2.4-10.7c1.6-3.1,3.7-5.5,6.5-7.3c2.8-1.7,5.9-2.6,9.5-2.6c2.7,0,5.3,0.6,7.5,1.7
					s4,2.7,5.3,4.6c0.1-1.9,0.8-3.4,2.1-4.5c1.3-1.1,3-1.7,5.1-1.7C577.7,463.5,579.5,464.1,580.8,465.3z M566,490.7
					c1.5-1.6,2.1-3.9,2.1-6.8s-0.7-5.3-2.1-6.9c-1.4-1.6-3.5-2.5-6-2.5s-4.6,0.8-6,2.5c-1.4,1.7-2.1,3.9-2.1,6.9
					c0,2.9,0.8,5.1,2.2,6.8s3.5,2.5,5.9,2.5C562.6,493.1,564.6,492.3,566,490.7z"/>
			</g>
			<g>
				<path class="st15" d="M624.7,467.9c3,3,4.6,7.6,4.6,13.8v17.5c0,2.1-0.7,3.8-1.9,4.9c-1.2,1.2-3,1.8-5.3,1.8
					c-1.9,0-3.6-0.6-4.8-1.7c-1.2-1.1-1.9-2.6-2-4.5c-0.8,2-2.1,3.6-3.9,4.7s-4,1.7-6.6,1.7c-2.8,0-5.4-0.6-7.7-1.7
					c-2.2-1.1-4-2.7-5.4-4.8c-1.3-2-2-4.4-2-6.9c0-2.9,0.8-5.3,2.4-7.1c1.6-1.8,3.9-3,7.3-3.8c3.4-0.8,7.8-1.1,13.5-1.1h2.2v-1
					c0-1.9-0.4-3.4-1.3-4.3c-0.9-0.9-2.4-1.3-4.5-1.3c-2.2,0-5.6,0.8-10.1,2.4c-1.2,0.4-2.4,0.7-3.2,0.7c-1.3,0-2.5-0.4-3.4-1.5
					c-0.8-1-1.2-2.4-1.2-3.9c0-1.2,0.2-2.2,0.8-3c0.4-0.8,1.3-1.5,2.5-2.1c1.9-1,4.4-1.8,7.4-2.5c2.9-0.6,5.8-0.9,8.7-0.9
					C617,463.3,621.7,464.9,624.7,467.9z M613.3,494c1.2-1.5,1.9-3.2,1.9-5.5v-1h-1.3c-3.6,0-6,0.3-7.6,1c-1.5,0.7-2.2,1.7-2.2,3.2
					c0,1.2,0.4,2.4,1.2,3.1c0.8,0.8,1.9,1.2,3.1,1.2C610.4,496.1,611.9,495.4,613.3,494z"/>
			</g>
			<g>
				<path class="st15" d="M667.6,500.4c0,1.9-0.8,3.4-2.2,4.4c-1.5,0.9-3.7,1.3-6.4,1.1l-2.4-0.1c-5-0.3-8.8-1.9-11.4-4.6
					c-2.6-2.7-3.9-6.4-3.9-11.1v-14.8h-2.5c-4.5,0-6.7-1.8-6.7-5.5c0-3.6,2.2-5.5,6.7-5.5h2.5v-5.5c0-2.1,0.7-3.8,2-5
					s3.1-1.9,5.5-1.9c2.2,0,4.1,0.7,5.5,1.9c1.3,1.2,2,2.9,2,5v5.5h4.6c4.5,0,6.7,1.8,6.7,5.5s-2.2,5.5-6.7,5.5h-4.6v16
					c0,1,0.3,1.9,1,2.7c0.7,0.7,1.5,1.1,2.5,1.1l2.5,0.1C665.7,495.5,667.6,497.2,667.6,500.4z"/>
			</g>
		</g>
		<g>
			<g>
				<path class="st1" d="M730.6,475.6c-0.2-2.7-1.3-5.3-3.4-7.3L714.9,456c-2.2-2.2-5.3-3.5-8.4-3.5c-3.1,0-6.2,1.2-8.4,3.5
					l-12.3,12.3c-2,2-3.1,4.6-3.4,7.3c-0.1,1.5,0,3,0.4,4.5s1.1,2.8,2,3.9c0.3,0.3,0.6,0.7,0.9,1l12.3,12.3c2.2,2.2,5.3,3.5,8.4,3.5
					c3.1,0,6.2-1.2,8.4-3.5l12.3-12.3c0.3-0.3,0.7-0.7,0.9-1c0.9-1.2,1.7-2.6,2-3.9C730.6,478.6,730.7,477.1,730.6,475.6z"/>
			</g>
		</g>
		<g>
			<g>
				<path class="st16" d="M737.3,475.6c-0.2-4.4-2-8.7-5.4-12l-12.3-12.3c-3.6-3.6-8.4-5.5-13.1-5.5c-4.8,0-9.5,1.8-13.1,5.5
					l-12.3,12.3c-3.4,3.4-5.1,7.6-5.4,12l0,0v1.1v6.7v0.6l0,0c0.1,4.6,1.9,9.1,5.5,12.5l12.3,12.3c3.6,3.6,8.4,5.5,13.1,5.5
					c4.8,0,9.5-1.8,13.1-5.5l12.3-12.3c3.5-3.5,5.3-7.9,5.5-12.5l0,0v-0.2v-0.7v-6v-0.7L737.3,475.6L737.3,475.6z M730.1,480.1
					c-0.4,1.5-1.1,2.8-2,3.9c-0.3,0.3-0.6,0.7-0.9,1l-12.3,12.3c-2.2,2.2-5.3,3.5-8.4,3.5c-3.1,0-6.2-1.2-8.4-3.5L685.8,485
					c-0.3-0.3-0.7-0.7-0.9-1c-0.9-1.2-1.7-2.6-2-3.9c-0.4-1.5-0.6-3-0.4-4.5c0.2-2.7,1.3-5.3,3.4-7.3l12.3-12.3
					c2.2-2.2,5.3-3.5,8.4-3.5c3.1,0,6.2,1.2,8.4,3.5l12.3,12.3c2,2,3.1,4.6,3.4,7.3C730.7,477.1,730.6,478.6,730.1,480.1z"/>
			</g>
		</g>
		<g>
			<g>
				<path class="st15" d="M715.5,480.7l-5,5c-2.2,2.2-5.8,2.2-7.9,0l-5-5c-2.2-2.2-2.2-5.8,0-7.9l5-5c2.2-2.2,5.8-2.2,7.9,0l5,5
					C717.6,475,717.6,478.5,715.5,480.7z"/>
			</g>
		</g>
	</g>
</g>
<g>
	<g>
		<path class="st1" d="M316.8,815.9H458c5.5,0,10-4.5,10-10l0,0c0-5.5-4.5-10-10-10H316.8c-5.5,0-10,4.5-10,10l0,0
			C306.8,811.5,311.3,815.9,316.8,815.9z"/>
	</g>
	<g>
		<path class="st1" d="M500.3,815.9L500.3,815.9c-5.5,0-10-4.5-10-10l0,0c0-5.5,4.5-10,10-10l0,0c5.5,0,10,4.5,10,10l0,0
			C510.4,811.5,505.9,815.9,500.3,815.9z"/>
	</g>
	<g>
		<path class="st1" d="M291.9,860.7h87.8c5.5,0,10-4.5,10-10l0,0c0-5.5-4.5-10-10-10h-87.8c-5.5,0-10,4.5-10,10l0,0
			C281.8,856.2,286.3,860.7,291.9,860.7z"/>
	</g>
	<g>
		<path class="st1" d="M422.1,860.7h114.2c5.5,0,10-4.5,10-10l0,0c0-5.5-4.5-10-10-10H422.1c-5.5,0-10,4.5-10,10l0,0
			C412.1,856.2,416.6,860.7,422.1,860.7z"/>
	</g>
	<g>
		<path class="st1" d="M403.8,905.5h87.8c5.5,0,10-4.5,10-10l0,0c0-5.5-4.5-10-10-10h-87.8c-5.5,0-10,4.5-10,10l0,0
			C393.8,901,398.2,905.5,403.8,905.5z"/>
	</g>
	<g>
		<path class="st1" d="M354.7,905.5L354.7,905.5c-5.5,0-10-4.5-10-10l0,0c0-5.5,4.5-10,10-10l0,0c5.5,0,10,4.5,10,10l0,0
			C364.6,901,360.2,905.5,354.7,905.5z"/>
	</g>
	<g>
		<path class="st1" d="M258.3,860.7L258.3,860.7c-5.5,0-10-4.5-10-10l0,0c0-5.5,4.5-10,10-10l0,0c5.5,0,10,4.5,10,10l0,0
			C268.2,856.2,263.7,860.7,258.3,860.7z"/>
	</g>
	<g>
		<path class="st0" d="M106.8,815.9H178c5.5,0,10-4.5,10-10l0,0c0-5.5-4.5-10-10-10h-71.2c-5.5,0-10,4.5-10,10l0,0
			C96.8,811.5,101.3,815.9,106.8,815.9z"/>
	</g>
	<g>
		<path class="st0" d="M51.9,860.7h147.7c5.5,0,10-4.5,10-10l0,0c0-5.5-4.5-10-10-10H51.9c-5.5,0-10,4.5-10,10l0,0
			C41.8,856.2,46.3,860.7,51.9,860.7z"/>
	</g>
	<g>
		<path class="st0" d="M123.8,905.5h87.8c5.5,0,10-4.5,10-10l0,0c0-5.5-4.5-10-10-10h-87.8c-5.5,0-10,4.5-10,10l0,0
			C113.8,901,118.2,905.5,123.8,905.5z"/>
	</g>
	<g>
		<path class="st0" d="M74.7,905.5L74.7,905.5c-5.5,0-10-4.5-10-10l0,0c0-5.5,4.5-10,10-10l0,0c5.5,0,10,4.5,10,10l0,0
			C84.6,901,80.2,905.5,74.7,905.5z"/>
	</g>
	<g>
		<path class="st0" d="M68.3,814.7L68.3,814.7c-5.5,0-10-4.5-10-10l0,0c0-5.5,4.5-10,10-10l0,0c5.5,0,10,4.5,10,10l0,0
			C78.2,810.2,73.7,814.7,68.3,814.7z"/>
	</g>
</g>
</svg>
