<?xml version="1.0" encoding="utf-8"?>
<!-- Generator: Adobe Illustrator 22.1.0, SVG Export Plug-In . SVG Version: 6.00 Build 0)  -->
<svg version="1.1" id="Layer_1" xmlns="http://www.w3.org/2000/svg" xmlns:xlink="http://www.w3.org/1999/xlink" x="0px" y="0px"
	 viewBox="0 0 500 500" style="enable-background:new 0 0 500 500;" xml:space="preserve">
<style type="text/css">
	.st0{fill:#D43732;}
	.st1{fill:#E8C347;}
	.st2{fill:#090A08;}
	.st3{fill:#F1CFB2;}
</style>
<g>
	<g>
		<path class="st0" d="M332,391.9c0-69-36.7-124.9-82-124.9s-82,55.9-82,124.9S332,460.8,332,391.9z"/>
		<path d="M250,446.1c-21.9,0-42.3-4.7-57.6-13.2c-17.6-9.9-26.9-24-26.9-41c0-33.8,8.7-65.7,24.4-89.7c16-24.3,37.3-37.7,60-37.7
			s44.1,13.4,60,37.7c15.7,24,24.4,55.8,24.4,89.7C334.4,429.1,290.7,446.1,250,446.1z M250,269.5c-43.8,0-79.5,54.9-79.5,122.4
			c0,33.8,41.2,49.2,79.5,49.2s79.5-15.4,79.5-49.2C329.5,324.4,293.8,269.5,250,269.5z"/>
	</g>
	<g>
		<g>
			<g>
				<path class="st0" d="M176.3,292.9L176.3,292.9c-0.3,0.5-0.6,1.1-0.9,1.6c-21.7,42.9,11.7,91.1,67.4,98.6l6.9,0.9v-64.5l-14-1.2
					C209.6,326.3,186.9,312.7,176.3,292.9L176.3,292.9z"/>
				<path d="M249.8,396.6c-0.1,0-0.2,0-0.3,0l-6.9-0.9c-30.6-4.1-56.3-20.7-68.7-44.2c-9.8-18.7-10-39.3-0.6-58
					c0.3-0.6,0.6-1.1,0.9-1.7c0.4-0.8,1.3-1.3,2.2-1.3c0,0,0,0,0,0c0.9,0,1.8,0.5,2.2,1.3c10.1,19.1,32.1,32.2,57.5,34.3l14,1.2
					c1.3,0.1,2.3,1.2,2.3,2.5v64.5c0,0.7-0.3,1.4-0.8,1.9C250.9,396.3,250.4,396.6,249.8,396.6z M176.5,298.1
					c-7.5,16.6-6.9,34.6,1.7,51c11.7,22.1,36,37.7,65,41.6l4.1,0.6v-59.3l-11.7-1C210.4,328.9,188.2,316.4,176.5,298.1z"/>
			</g>
			<g>
				<path class="st0" d="M323.7,292.9L323.7,292.9c0.3,0.5,0.6,1.1,0.9,1.6c21.7,42.9-11.7,91.1-67.4,98.6l-6.9,0.9v-64.5l14-1.2
					C290.4,326.3,313.1,312.7,323.7,292.9L323.7,292.9z"/>
				<path d="M250.2,396.6c-0.6,0-1.2-0.2-1.6-0.6c-0.5-0.5-0.8-1.2-0.8-1.9v-64.5c0-1.3,1-2.4,2.3-2.5l14-1.2
					c25.3-2.1,47.3-15.2,57.5-34.3c0.4-0.8,1.3-1.3,2.2-1.3c0,0,0,0,0,0c0.9,0,1.8,0.5,2.2,1.3c0.3,0.6,0.6,1.1,0.9,1.7
					c9.5,18.7,9.3,39.3-0.6,58c-12.4,23.6-38.1,40.1-68.7,44.2l-6.9,0.9C250.5,396.5,250.3,396.6,250.2,396.6z M252.7,331.9v59.3
					l4.1-0.6c29-3.9,53.3-19.5,65-41.6c8.6-16.4,9.2-34.4,1.7-51c-11.7,18.3-33.9,30.8-59.1,32.9L252.7,331.9z"/>
			</g>
		</g>
	</g>
	<g>
		<g>
			<path class="st1" d="M319.6,219.1l-6.7-3.3l52.8-120c2.4-4.8,8.2-6.8,13-4.4v0c4.8,2.4,6.8,8.2,4.4,13L319.6,219.1z"/>
			<path d="M319.6,221.6c-0.4,0-0.7-0.1-1.1-0.3l-6.7-3.3c-1.2-0.6-1.7-2-1.2-3.2l52.8-120c0,0,0-0.1,0-0.1c1.4-2.9,3.9-5.1,7-6.1
				c3.1-1,6.4-0.8,9.3,0.6c6,3,8.5,10.3,5.5,16.3c0,0,0,0.1-0.1,0.1l-63.5,114.7C321.3,221.1,320.4,221.6,319.6,221.6z M316.1,214.6
				l2.4,1.2l62.3-112.6c1.7-3.5,0.3-7.8-3.3-9.6c-1.7-0.9-3.7-1-5.5-0.4c-1.8,0.6-3.3,1.9-4.1,3.6L316.1,214.6z"/>
		</g>
		<g>
			<path class="st1" d="M319.8,220.2l-5.6-4.9l81.3-102.9c3.5-4,9.6-4.5,13.7-1v0c4,3.5,4.5,9.6,1,13.7L319.8,220.2z"/>
			<path d="M319.8,222.7c-0.6,0-1.2-0.2-1.6-0.6l-5.6-4.9c-1-0.9-1.1-2.4-0.3-3.4l81.3-102.9c0,0,0-0.1,0.1-0.1
				c4.4-5.1,12.1-5.6,17.2-1.2c2.5,2.1,3.9,5.1,4.2,8.3c0.2,3.2-0.8,6.4-2.9,8.8c0,0-0.1,0.1-0.1,0.1l-90.3,95.1
				C321.1,222.4,320.5,222.7,319.8,222.7z M317.6,215l2,1.8l88.6-93.3c2.6-3,2.2-7.5-0.8-10.1c-3-2.6-7.5-2.3-10.1,0.7L317.6,215z"
				/>
		</g>
	</g>
	<g>
		<g>
			<circle class="st2" cx="115.9" cy="212.1" r="55.6"/>
		</g>
		<g>
			<circle class="st2" cx="384.1" cy="212.1" r="55.6"/>
		</g>
	</g>
	<g>
		<path class="st3" d="M351.7,157.8c-0.6,0-64.5-24.1-101.9-24.1c-37.9,0-101.3,24.8-101.5,24.8c-12.8,0-13.2,28.2-13.2,62.9
			c0,16.8,2.4,32,6.4,43.3c6.7,27.6,52.7,49,108.4,49c54.5,0,99.6-20.4,107.9-47.1c4.5-11.5,7.3-27.8,7.3-45.9
			C365,186,364.5,157.8,351.7,157.8z"/>
		<path d="M249.8,316.3c-56.1,0-103.7-21.8-110.8-50.8c-4.2-12-6.5-27.6-6.5-44c0-34.8,0-64.8,15.3-65.4c0.2-0.1,0.4-0.1,0.7-0.3
			c19.8-7.4,69.3-24.6,101.3-24.6c15.3,0,45.1,4.1,100.1,23.4c0.9,0.3,1.8,0.6,2.2,0.8c15.3,0.5,15.3,30.6,15.3,65.4
			c0,17.8-2.7,34.4-7.5,46.7C351.2,295.7,304.8,316.3,249.8,316.3z M249.8,136.2c-31.2,0-80,17-99.5,24.3c-1.5,0.6-1.5,0.6-2,0.6
			c-10.8,0-10.8,32.1-10.8,60.5c0,15.9,2.2,31,6.2,42.5l0.1,0.2c6.5,26.9,52,47.1,106,47.1c52.1,0,97.5-19.5,105.5-45.4l0.1-0.2
			c4.5-11.6,7.2-28,7.2-45c0-28.3,0-60.5-10.8-60.5c-0.5,0-0.5,0-3.5-1C293.9,140.2,264.7,136.2,249.8,136.2z"/>
	</g>
	<g>
		<path class="st2" d="M365,179c0-41.9-30.1-86.7-115-86.7c-85,0-115,44.9-115,86.7c0,13.3,17.4,22.7,44.4,28.3l7.3-18.3l8.4,21
			c12.7,1.7,26.8,2.8,41.8,3.2l13-32.4l13,32.4c15.4-0.4,29.9-1.5,42.9-3.3l8.3-20.8l7.3,18.1C348,201.5,365,192.2,365,179z"/>
	</g>
	<g>
		<path class="st0" d="M269.1,270.6c0,11-8.5,20-19.1,20c-10.5,0-19.1-8.9-19.1-20c13.2,0,8.5,0,19.1,0
			C260.5,270.6,261.9,270.6,269.1,270.6z"/>
		<path d="M250,293c-11.9,0-21.6-10.1-21.6-22.5c0-1.4,1.1-2.5,2.5-2.5h38.2c1.4,0,2.5,1.1,2.5,2.5C271.6,283,261.9,293,250,293z
			 M233.6,273.1c1.1,8.5,8.1,15,16.4,15c8.4,0,15.3-6.5,16.4-15H233.6z"/>
	</g>
	<g>
		<g>
			<path d="M203.1,253.3c-2.7,0-5-2.2-5-5c0-7-5.7-12.7-12.7-12.7c-7,0-12.7,5.7-12.7,12.7c0,2.7-2.2,5-5,5c-2.7,0-5-2.2-5-5
				c0-12.5,10.1-22.6,22.6-22.6c12.5,0,22.6,10.1,22.6,22.6C208,251.1,205.8,253.3,203.1,253.3z"/>
		</g>
		<g>
			<path d="M332.2,253.3c-2.7,0-5-2.2-5-5c0-7-5.7-12.7-12.7-12.7c-7,0-12.7,5.7-12.7,12.7c0,2.7-2.2,5-5,5s-5-2.2-5-5
				c0-12.5,10.1-22.6,22.6-22.6s22.6,10.1,22.6,22.6C337.2,251.1,335,253.3,332.2,253.3z"/>
		</g>
	</g>
</g>
</svg>
