<?xml version="1.0" encoding="utf-8"?>
<!-- Generator: Adobe Illustrator 21.1.0, SVG Export Plug-In . SVG Version: 6.00 Build 0)  -->
<svg version="1.1" id="Capa_1" xmlns="http://www.w3.org/2000/svg" xmlns:xlink="http://www.w3.org/1999/xlink" x="0px" y="0px"
	 viewBox="0 0 490 490" style="enable-background:new 0 0 490 490;" xml:space="preserve">
<g>
	<path d="M338.1,85V0L70.6,85.3l0,0V490h348.8V85H338.1z M317.4,28.3V85H139.5L317.4,28.3z M398.7,469.3H91.3V105.7h307.4
		L398.7,469.3L398.7,469.3z"/>
	<polygon points="135.7,205.2 150.9,236.2 158.5,236.2 173.8,205.2 173.8,240.9 186.5,240.9 186.5,184.1 169.5,184.1 154.7,215.3 
		140.1,184.1 123,184.1 123,240.9 135.7,240.9 	"/>
	<polygon points="242.3,229.7 213.2,229.7 213.2,217.9 238.6,217.9 238.6,207.1 213.2,207.1 213.2,195.4 241.4,195.4 241.4,184.1 
		200.5,184.1 200.5,240.9 242.3,240.9 	"/>
	<polygon points="266.3,205.3 293.3,240.9 306,240.9 306,184.1 293.3,184.1 293.3,220.7 265.5,184.1 253.6,184.1 253.6,240.9 
		266.3,240.9 	"/>
	<path d="M343.5,241.5c7.1,0,12.9-2.2,17.5-6.6c4.5-4.4,6.8-10.7,6.8-19v-31.8h-12.7v31.4c0,4.5-1,8.1-3.1,10.8
		c-2.1,2.6-4.9,3.9-8.5,3.9c-3.6,0-6.4-1.3-8.5-3.9c-2.1-2.6-3.2-6.2-3.2-10.8v-31.4h-12.7v31.8c0,8.2,2.3,14.5,6.9,18.9
		C330.6,239.3,336.4,241.5,343.5,241.5z"/>
	<rect x="129.2" y="285.4" width="231.2" height="20.7"/>
	<rect x="129.2" y="346.7" width="231.2" height="20.7"/>
	<rect x="129.2" y="408" width="231.2" height="20.7"/>
</g>
</svg>
