<?xml version="1.0" encoding="utf-8"?>
<!-- Generator: Adobe Illustrator 21.1.0, SVG Export Plug-In . SVG Version: 6.00 Build 0)  -->
<svg version="1.1" id="Layer_1" xmlns="http://www.w3.org/2000/svg" xmlns:xlink="http://www.w3.org/1999/xlink" x="0px" y="0px"
	 viewBox="0 0 1000 1000" style="enable-background:new 0 0 1000 1000;" xml:space="preserve">
<style type="text/css">
	.st0{fill:#D0011B;}
	.st1{fill:#FFFFFF;}
	.st2{fill:#222D0C;}
</style>
<g>
	<g>
		<path class="st0" d="M336.4,493.7c0,3.2-1.3,5.8-3.8,8c-2.5,2.2-5.4,3.3-8.7,3.3c-2.2,0-4.2-0.6-6-1.7c-1.8-1.1-3.3-2.9-4.3-5.2
			l-6.5-14.5h-46.5l-6.6,14.5c-1.1,2.3-2.5,4-4.4,5.2c-1.9,1.1-3.9,1.7-6.1,1.7c-3.3,0-6.2-1.1-8.8-3.3c-2.6-2.2-3.9-4.9-3.9-8
			c0-1.7,0.4-3.5,1.3-5.3l37.9-77.8c1.2-2.6,3.1-4.6,5.5-6c2.4-1.4,5.1-2.1,8.1-2.1c2.9,0,5.6,0.7,8,2.1c2.5,1.4,4.4,3.4,5.6,6
			l37.9,77.8C336,490.3,336.4,492,336.4,493.7z M298.3,463.9l-14.4-32l-14.4,32H298.3z"/>
		<path class="st0" d="M398.3,434.8c1.9,1.8,2.9,4.4,2.9,7.8c0,3.8-0.9,6.6-2.7,8.3c-1.8,1.7-5,2.8-9.5,3.3l-4.3,0.4
			c-4.8,0.6-8.2,2.1-10.3,4.5c-2.1,2.4-3.1,5.8-3.1,10v24.6c0,3.9-1.2,6.9-3.7,8.8c-2.4,2-5.5,2.9-9.1,2.9c-3.6,0-6.7-1-9.1-2.9
			c-2.4-2-3.7-4.9-3.7-8.8v-49.7c0-3.6,1.2-6.5,3.7-8.5c2.4-2,5.4-3,8.8-3c3.5,0,6.4,1,8.5,2.9c2.2,1.9,3.2,4.6,3.2,8v2.7
			c1.5-4.2,4-7.5,7.5-9.8c3.5-2.3,7.2-3.5,11-3.7l2-0.1C393.8,432.3,396.4,433,398.3,434.8z"/>
		<path class="st0" d="M408.4,419.2c-2.5-2.2-3.8-5.2-3.8-9c0-3.7,1.3-6.7,3.8-8.9c2.5-2.2,6-3.3,10.3-3.3c4.2,0,7.6,1.1,10.2,3.3
			c2.6,2.2,3.9,5.2,3.9,8.9c0,3.7-1.3,6.7-3.8,9c-2.5,2.3-6,3.4-10.3,3.4C414.4,422.5,411,421.4,408.4,419.2z M409.6,502.6
			c-2.4-2-3.7-4.9-3.7-8.8v-49.4c0-3.9,1.2-6.9,3.7-8.8c2.4-2,5.5-2.9,9.1-2.9c3.6,0,6.7,1,9.1,2.9c2.4,2,3.7,4.9,3.7,8.8v49.4
			c0,3.9-1.2,6.9-3.7,8.8c-2.4,2-5.5,2.9-9.1,2.9C415.1,505.5,412,504.5,409.6,502.6z"/>
		<path class="st0" d="M518.2,435.8c2.3,2.2,3.4,5,3.4,8.5V496c0,11.7-3.5,20.5-10.6,26.6s-17.4,9-30.9,9c-5.3,0-10.2-0.5-14.9-1.4
			c-4.7-1-8.7-2.3-11.9-4.2c-1.7-1-3.1-2.2-4.1-3.7c-1-1.5-1.5-3.3-1.5-5.2c0-2.8,0.7-5,2.1-6.7c1.4-1.7,3.2-2.6,5.4-2.6
			c1.7,0,4.8,0.7,9.3,2.2c3,1,5.6,1.7,7.9,2.2c2.3,0.5,4.6,0.8,7,0.8c5.8,0,10.1-1.2,12.9-3.7c2.7-2.4,4.1-6.3,4.1-11.6v-5.5
			c-2.1,3.2-5.1,5.7-9,7.5c-3.9,1.9-8.2,2.8-12.8,2.8c-6.1,0-11.6-1.4-16.4-4.3c-4.8-2.9-8.5-7-11.2-12.3c-2.7-5.3-4-11.5-4-18.5
			c0-7,1.3-13.2,4-18.5c2.7-5.4,6.4-9.5,11.2-12.4c4.8-2.9,10.2-4.4,16.4-4.4c4.7,0,9,1,12.9,2.9c3.9,1.9,6.9,4.5,9,7.9
			c0.2-3.3,1.4-5.8,3.7-7.7c2.2-1.9,5.2-2.8,8.8-2.8C512.9,432.6,515.9,433.7,518.2,435.8z M492.8,479.4c2.5-2.8,3.7-6.7,3.7-11.8
			c0-5.1-1.2-9-3.7-11.9c-2.5-2.9-6-4.3-10.5-4.3c-4.4,0-7.8,1.4-10.3,4.2c-2.5,2.8-3.7,6.8-3.7,12c0,5,1.3,8.9,3.8,11.7
			c2.5,2.8,6,4.2,10.3,4.2C486.8,483.5,490.3,482.2,492.8,479.4z"/>
		<path class="st0" d="M593.7,440.1c5.2,5.2,7.8,13.1,7.8,23.8v30c0,3.6-1.1,6.5-3.2,8.5c-2.2,2.1-5.1,3.1-9,3.1
			c-3.4,0-6.1-1-8.3-2.9c-2.2-1.9-3.3-4.5-3.5-7.8c-1.3,3.4-3.6,6.1-6.7,8c-3.2,1.9-6.9,2.9-11.3,2.9c-4.9,0-9.3-1-13.2-2.9
			c-3.9-2-7-4.7-9.3-8.2c-2.3-3.5-3.4-7.4-3.4-11.8c0-5.1,1.3-9.1,3.9-12.1c2.6-3,6.8-5.2,12.6-6.5c5.7-1.3,13.5-2,23.3-2h3.9v-1.7
			c0-3.3-0.8-5.8-2.3-7.3c-1.5-1.5-4.1-2.2-7.8-2.2c-3.9,0-9.7,1.3-17.2,4c-2.2,0.8-4.1,1.1-5.6,1.1c-2.4,0-4.3-0.9-5.7-2.6
			c-1.4-1.7-2.2-4-2.2-6.7c0-2.1,0.4-3.8,1.3-5.2c0.9-1.3,2.2-2.5,4.2-3.6c3.3-1.7,7.6-3.1,12.6-4.2c5.1-1.1,10.1-1.6,14.9-1.6
			C580.4,432.3,588.4,434.9,593.7,440.1z M573.9,485.1c2.2-2.4,3.3-5.6,3.3-9.4v-1.7h-2.3c-6.1,0-10.5,0.6-13.1,1.7
			c-2.6,1.1-3.9,2.9-3.9,5.5c0,2.2,0.7,4,2.1,5.5c1.4,1.4,3.2,2.2,5.4,2.2C568.9,488.7,571.7,487.5,573.9,485.1z"/>
		<path class="st0" d="M667.2,495.9c0,3.4-1.3,5.8-3.9,7.5c-2.6,1.6-6.3,2.3-11.1,2l-4-0.3c-8.6-0.7-15.1-3.3-19.6-7.8
			c-4.5-4.5-6.7-10.9-6.7-19v-25.4h-4.2c-7.7,0-11.5-3.2-11.5-9.5c0-6.2,3.8-9.3,11.5-9.3h4.2v-9.3c0-3.6,1.1-6.5,3.4-8.7
			c2.3-2.2,5.4-3.2,9.3-3.2c3.9,0,7,1.1,9.3,3.2c2.3,2.2,3.4,5.1,3.4,8.7v9.3h7.9c7.7,0,11.5,3.1,11.5,9.3c0,6.3-3.8,9.5-11.5,9.5
			h-7.9v27.6c0,1.8,0.5,3.4,1.7,4.6c1.1,1.2,2.5,1.9,4.2,2l4.2,0.3C664,487.7,667.2,490.5,667.2,495.9z"/>
	</g>
	<g>
		<path class="st1" d="M775.5,453.4c-0.4-4.5-2.4-9-5.9-12.4l-21.2-21.2c-3.8-3.8-9-6-14.4-6c-5.4,0-10.5,2.1-14.4,6l-21.2,21.2
			c-3.5,3.5-5.4,7.9-5.9,12.4c-0.2,2.6,0,5.2,0.7,7.7c0.7,2.4,1.9,4.7,3.5,6.8c0.5,0.6,1,1.2,1.6,1.8l21.2,21.2c3.8,3.8,9,6,14.4,6
			s10.5-2.1,14.4-6l21.2-21.2c0.6-0.6,1.1-1.2,1.6-1.8c1.6-2.1,2.8-4.4,3.5-6.8C775.5,458.6,775.8,456,775.5,453.4z"/>
	</g>
	<g>
		<path class="st2" d="M787.2,453.4c-0.5-7.5-3.6-14.9-9.3-20.7l-21.2-21.2c-6.2-6.2-14.4-9.4-22.6-9.4s-16.4,3.1-22.6,9.4
			l-21.2,21.2c-5.7,5.7-8.8,13.1-9.3,20.7H681v1.9v11.6v1h0c0.2,7.8,3.4,15.6,9.3,21.6l21.2,21.2c6.2,6.2,14.4,9.4,22.6,9.4
			s16.4-3.1,22.6-9.4l21.2-21.2c6-6,9.1-13.8,9.3-21.6h0v-0.4v-1.2v-10.3v-1.2L787.2,453.4L787.2,453.4z M774.8,461.1
			c-0.7,2.4-1.9,4.7-3.5,6.8c-0.5,0.6-1,1.2-1.6,1.8l-21.2,21.2c-3.8,3.8-9,6-14.4,6s-10.5-2.1-14.4-6l-21.2-21.2
			c-0.6-0.6-1.1-1.2-1.6-1.8c-1.6-2.1-2.8-4.4-3.5-6.8c-0.7-2.5-1-5.1-0.7-7.7c0.4-4.5,2.4-9,5.9-12.4l21.2-21.2c3.8-3.8,9-6,14.4-6
			c5.4,0,10.5,2.1,14.4,6l21.2,21.2c3.5,3.5,5.4,7.9,5.9,12.4C775.8,456,775.5,458.6,774.8,461.1z"/>
	</g>
	<g>
		<path class="st0" d="M749.6,462.2l-8.6,8.6c-3.8,3.8-9.9,3.8-13.7,0l-8.6-8.6c-3.8-3.8-3.8-9.9,0-13.7l8.6-8.6
			c3.8-3.8,9.9-3.8,13.7,0l8.6,8.6C753.4,452.3,753.4,458.4,749.6,462.2z"/>
	</g>
</g>
<g>
	<g id="XMLID_1_">
		<g>
			<path class="st1" d="M751.8,191.6c5.4,0,10.5,2.1,14.4,6l21.2,21.2c3.5,3.5,5.4,7.9,5.9,12.4c0.2,2.6,0,5.2-0.7,7.7
				c-0.7,2.4-1.9,4.7-3.5,6.8c-0.5,0.6-1,1.2-1.6,1.8l-21.2,21.2c-3.8,3.8-9,6-14.4,6s-10.5-2.1-14.4-6l-21.2-21.2
				c-0.6-0.6-1.1-1.2-1.6-1.8c-1.6-2.1-2.8-4.4-3.5-6.8c-0.7-2.5-1-5.1-0.7-7.7c0.4-4.5,2.4-9,5.9-12.4l21.2-21.2
				C741.2,193.7,746.3,191.6,751.8,191.6z M767.2,239.9c3.8-3.8,3.8-9.9,0-13.7l-8.6-8.6c-3.8-3.8-9.9-3.8-13.7,0l-8.6,8.6
				c-3.8,3.8-3.8,9.9,0,13.7l8.6,8.6c3.8,3.8,9.9,3.8,13.7,0L767.2,239.9z"/>
			<path class="st0" d="M767.2,226.2c3.8,3.8,3.8,9.9,0,13.7l-8.6,8.6c-3.8,3.8-9.9,3.8-13.7,0l-8.6-8.6c-3.8-3.8-3.8-9.9,0-13.7
				l8.6-8.6c3.8-3.8,9.9-3.8,13.7,0L767.2,226.2z"/>
			<path class="st2" d="M737.4,268.6c3.8,3.8,9,6,14.4,6s10.5-2.1,14.4-6l21.2-21.2c0.6-0.6,1.1-1.2,1.6-1.8
				c1.6-2.1,2.8-4.4,3.5-6.8c0.7-2.5,1-5.1,0.7-7.7c-0.4-4.5-2.4-9-5.9-12.4l-21.2-21.2c-3.8-3.8-9-6-14.4-6s-10.5,2.1-14.4,6
				l-21.2,21.2c-3.5,3.5-5.4,7.9-5.9,12.4c-0.3,2.6,0,5.2,0.7,7.7c0.7,2.4,1.9,4.7,3.5,6.8c0.5,0.6,1,1.2,1.6,1.8L737.4,268.6z
				 M804.9,245.3v0.4h0c-0.3,7.8-3.4,15.6-9.3,21.6l-21.2,21.2c-6.3,6.2-14.4,9.4-22.6,9.4s-16.4-3.1-22.6-9.4L708,267.2
				c-6-6-9.1-13.8-9.3-21.6h0v-1v-11.6v-1.9h0.1c0.5-7.5,3.5-14.9,9.3-20.7l21.2-21.2c6.2-6.2,14.4-9.4,22.6-9.4s16.4,3.1,22.6,9.4
				l21.2,21.2c5.8,5.8,8.8,13.1,9.3,20.7h0v1.3v1.2V244V245.3z"/>
			<path class="st0" d="M684.9,273.7c0,3.4-1.3,5.8-3.9,7.5c-2.6,1.6-6.3,2.3-11,2l-4-0.3c-8.6-0.7-15.1-3.3-19.6-7.8
				c-4.5-4.5-6.7-10.9-6.7-19v-25.4h-4.2c-7.7,0-11.5-3.2-11.5-9.5c0-6.2,3.8-9.3,11.5-9.3h4.2v-9.3c0-3.6,1.1-6.5,3.4-8.7
				c2.3-2.1,5.4-3.2,9.3-3.2c3.9,0,7,1.1,9.3,3.2c2.3,2.2,3.5,5.1,3.5,8.7v9.3h7.9c7.7,0,11.5,3.1,11.5,9.3c0,6.3-3.8,9.5-11.5,9.5
				h-7.9v27.6c0,1.8,0.5,3.4,1.6,4.6c1.1,1.3,2.5,1.9,4.2,2l4.2,0.3C681.7,265.4,684.9,268.3,684.9,273.7z"/>
			<path class="st0" d="M619.2,241.6v30c0,3.6-1.1,6.5-3.2,8.5c-2.2,2.1-5.2,3.1-9,3.1c-3.3,0-6.1-1-8.3-2.9
				c-2.1-1.9-3.3-4.5-3.5-7.8c-1.3,3.5-3.6,6.1-6.8,8c-3.2,1.9-6.9,2.9-11.3,2.9c-4.9,0-9.3-1-13.2-2.9c-3.9-2-7-4.7-9.3-8.2
				c-2.3-3.5-3.4-7.4-3.4-11.9c0-5.1,1.3-9.1,3.9-12.1c2.6-3,6.8-5.2,12.6-6.5c5.7-1.3,13.5-2,23.3-2h3.9v-1.7
				c0-3.3-0.8-5.8-2.3-7.3c-1.5-1.5-4.1-2.2-7.8-2.2c-3.9,0-9.7,1.3-17.2,4c-2.2,0.8-4.1,1.2-5.6,1.2c-2.4,0-4.3-0.9-5.7-2.6
				s-2.1-4-2.1-6.8c0-2.1,0.4-3.8,1.3-5.2c0.9-1.3,2.3-2.5,4.2-3.6c3.4-1.7,7.6-3.1,12.6-4.2c5.1-1.1,10-1.6,14.9-1.6
				c10.9,0,19,2.6,24.2,7.8C616.5,223.1,619.2,231,619.2,241.6z M594.9,253.4v-1.7h-2.3c-6.1,0-10.5,0.6-13.1,1.7
				c-2.6,1.1-3.9,2.9-3.9,5.5c0,2.2,0.7,4,2.1,5.5c1.4,1.4,3.2,2.2,5.4,2.2c3.4,0,6.3-1.2,8.5-3.7S594.9,257.2,594.9,253.4z"/>
			<path class="st0" d="M539.3,222.1v51.7c0,11.7-3.5,20.5-10.5,26.6c-7,6-17.4,9-30.9,9c-5.3,0-10.2-0.5-14.9-1.4
				c-4.7-0.9-8.7-2.3-11.9-4.2c-1.7-1-3.1-2.2-4.1-3.7c-1-1.5-1.5-3.3-1.5-5.2c0-2.8,0.7-5,2.1-6.8c1.4-1.7,3.2-2.6,5.4-2.6
				c1.7,0,4.8,0.7,9.3,2.2c3,0.9,5.6,1.7,7.9,2.2c2.3,0.5,4.6,0.8,7,0.8c5.8,0,10.1-1.2,12.9-3.7s4.1-6.3,4.1-11.6v-5.5
				c-2.1,3.2-5.1,5.7-9.1,7.5c-3.9,1.9-8.2,2.8-12.8,2.8c-6.1,0-11.6-1.4-16.4-4.3c-4.8-2.9-8.5-7-11.2-12.3s-4-11.5-4-18.4
				c0-7,1.3-13.2,4-18.5s6.4-9.5,11.2-12.4c4.8-2.9,10.2-4.4,16.4-4.4c4.7,0,9,1,12.9,2.9c3.9,1.9,6.9,4.5,9,7.9
				c0.2-3.3,1.4-5.8,3.7-7.7c2.3-1.9,5.2-2.8,8.8-2.8c3.8,0,6.9,1.1,9.2,3.2C538.2,215.7,539.3,218.6,539.3,222.1z M514.2,245.4
				c0-5.1-1.2-9-3.7-11.9c-2.5-2.9-6-4.3-10.5-4.3c-4.4,0-7.9,1.4-10.3,4.2c-2.5,2.8-3.7,6.8-3.7,12c0,5,1.3,8.9,3.8,11.7
				c2.5,2.8,6,4.2,10.3,4.2c4.5,0,8-1.4,10.5-4.2C513,254.4,514.2,250.4,514.2,245.4z"/>
			<path class="st0" d="M450.4,187.9c0,3.7-1.3,6.7-3.8,9c-2.5,2.3-6,3.4-10.3,3.4c-4.3,0-7.7-1.1-10.3-3.4c-2.5-2.2-3.8-5.2-3.8-9
				c0-3.7,1.3-6.7,3.8-8.9c2.5-2.2,6-3.3,10.3-3.3c4.2,0,7.6,1.1,10.2,3.3C449.2,181.2,450.4,184.2,450.4,187.9z"/>
			<path class="st0" d="M449.2,222.1v49.4c0,3.9-1.2,6.9-3.7,8.8c-2.4,2-5.5,2.9-9.1,2.9c-3.6,0-6.7-1-9.1-2.9
				c-2.4-2-3.7-4.9-3.7-8.8v-49.4c0-3.9,1.2-6.9,3.7-8.8c2.4-2,5.5-2.9,9.1-2.9c3.6,0,6.7,1,9.1,2.9
				C447.9,215.2,449.2,218.2,449.2,222.1z"/>
			<path class="st0" d="M418.9,220.4c0,3.8-0.9,6.6-2.7,8.3c-1.8,1.7-4.9,2.8-9.5,3.3l-4.3,0.4c-4.8,0.6-8.2,2.1-10.3,4.5
				c-2.1,2.4-3.1,5.8-3.1,10v24.5c0,3.9-1.2,6.9-3.7,8.8c-2.4,2-5.5,2.9-9.1,2.9c-3.6,0-6.7-1-9.1-2.9c-2.4-2-3.7-4.9-3.7-8.8v-49.7
				c0-3.6,1.2-6.5,3.7-8.5s5.4-3,8.8-3c3.5,0,6.4,1,8.5,2.9c2.1,1.9,3.2,4.6,3.2,8v2.7c1.5-4.2,4-7.5,7.5-9.8
				c3.5-2.3,7.1-3.5,11-3.7l2-0.1c3.3-0.3,5.8,0.4,7.8,2.2C417.9,214.3,418.9,216.9,418.9,220.4z"/>
			<path class="st0" d="M354.1,271.5c0,3.2-1.3,5.8-3.8,8c-2.5,2.2-5.4,3.3-8.7,3.3c-2.2,0-4.2-0.6-6-1.7c-1.8-1.1-3.3-2.9-4.3-5.2
				l-6.5-14.5h-46.5l-6.6,14.5c-1.1,2.3-2.5,4-4.4,5.2c-1.9,1.2-3.9,1.7-6.1,1.7c-3.3,0-6.2-1.1-8.8-3.3c-2.6-2.2-3.9-4.9-3.9-8
				c0-1.7,0.4-3.5,1.3-5.3l37.9-77.8c1.2-2.6,3.1-4.6,5.5-6c2.5-1.4,5.1-2.1,8.1-2.1c2.9,0,5.6,0.7,8,2.1c2.5,1.4,4.4,3.4,5.6,6
				l37.9,77.8C353.7,268,354.1,269.8,354.1,271.5z M315.9,241.6l-14.4-32l-14.4,32H315.9z"/>
		</g>
		<g>
		</g>
	</g>
</g>
</svg>
