<?xml version="1.0" encoding="utf-8"?>
<!-- Generator: Adobe Illustrator 21.1.0, SVG Export Plug-In . SVG Version: 6.00 Build 0)  -->
<svg version="1.1" id="Layer_1" xmlns="http://www.w3.org/2000/svg" xmlns:xlink="http://www.w3.org/1999/xlink" x="0px" y="0px"
	 viewBox="0 0 187.9 188" style="enable-background:new 0 0 187.9 188;" xml:space="preserve">
<style type="text/css">
	.st0{fill:#000703;}
	.st1{fill:#D14A43;}
	.st2{fill:#EBB144;}
	.st3{fill:#EAB191;}
</style>
<g>
	<g>
		<path class="st0" d="M132.7,135.3c1.1-2.9,1.5-6.2,1.3-9.7c-0.2-3.5-1.1-7.2-2.6-11.2c-2.5-6.6-5.8-11.5-5.9-11.7l-0.9-1.2
			l-3.9,1.1l-0.1-0.3H66.2l-3-0.9l-0.8,1.2c-0.1,0.2-3.5,5-5.9,11.7c-1.5,3.9-2.3,7.7-2.6,11.2c-0.2,3.8,0.3,7.2,1.5,10.3
			c-0.7,2.3-1.8,6.5-2.4,11.7c-0.6,4.5-0.7,8.8-0.4,12.7c0.4,5,1.6,9.5,3.5,13.3c3.4,6.9,9.1,11.7,17,14.3l0.3,0.1h41.8l0.4-0.2
			c7.1-3.1,12.4-7.9,15.8-14.3c2.7-5.1,4.1-11.1,4.3-17.9C135.8,146.4,133.6,138.2,132.7,135.3z M122.9,106.3c2,3.3,7.1,12.4,7,21.2
			l-7.7-21L122.9,106.3z M66.6,113.5c0.2,0.3,0.3,0.6,0.5,1c3.4,5.4,11.7,8.2,24.7,8.5v24.7c-9-0.2-16.4-1.4-21.9-3.7
			c-4.9-2-8.3-4.9-10.2-8.5c0-0.1,0-0.1,0-0.1l0,0L66.6,113.5z M77,116.6c-3.1-1.1-5.2-2.5-6.3-4.3c-1.5-2.3-1-4.8-0.6-5.8h47.7
			l0.1,0.3c0.3,1.1,0.6,3.3-0.7,5.4c-1.1,1.8-3.3,3.3-6.3,4.4c-4.1,1.5-9.8,2.2-17,2.2C86.8,118.8,81.1,118.1,77,116.6z M96,123
			c13-0.3,21.3-3.1,24.7-8.5l7.6,20.6c-0.1,0.1-0.1,0.3-0.2,0.4c-1.9,3.6-5.3,6.5-10.2,8.5c-5.5,2.3-12.8,3.5-21.9,3.7V123z
			 M63.9,108.1l-6,19.4C57.9,120,61.6,112.2,63.9,108.1z M131.3,155.6c-0.4,13.4-5.8,22.7-16.2,27.8c-1.5-4.4-5.7-7.6-10.6-7.6
			c-4.9,0-9.1,3.2-10.6,7.6c-1.5-4.4-5.7-7.6-10.6-7.6c-4.9,0-9.1,3.2-10.6,7.6c-5.9-2.3-10.3-6.2-13-11.6
			c-3.8-7.6-3.6-17.1-2.8-23.6c0.4-2.8,0.8-5.3,1.3-7.4c6.1,7.3,18,11,35.6,11c17.8,0,29.9-3.8,35.9-11.4
			C130.6,144.3,131.5,149.8,131.3,155.6z"/>
		<g>
			<path class="st1" d="M59.8,135.5c-5.5-10.4,2.5-24.9,5.2-29.2l0.8,0.2c-0.4,2-0.5,4.9,1.4,7.9c3.4,5.4,11.7,8.2,24.7,8.5v24.7
				c-9-0.2-16.4-1.4-21.9-3.7C65.1,142,61.7,139.1,59.8,135.5z M128.1,135.5c-1.9,3.6-5.3,6.5-10.2,8.5c-5.5,2.3-12.8,3.5-21.9,3.7
				V123c13-0.3,21.3-3.1,24.7-8.5c1.8-2.9,1.8-5.9,1.4-7.9l0.8-0.2C125.6,110.6,133.5,125.1,128.1,135.5z"/>
		</g>
		<path class="st1" d="M77,116.6c-3.1-1.1-5.2-2.5-6.3-4.3c-1.5-2.3-1-4.8-0.6-5.8h47.7l0.1,0.3c0.3,1.1,0.6,3.3-0.7,5.4
			c-1.1,1.8-3.3,3.3-6.3,4.4c-4.1,1.5-9.8,2.2-17,2.2C86.8,118.8,81.1,118.1,77,116.6z"/>
		<path class="st1" d="M131.3,155.6c-0.4,13.4-5.8,22.7-16.2,27.8c-1.5-4.4-5.7-7.6-10.6-7.6c-4.9,0-9.1,3.2-10.6,7.6
			c-1.5-4.4-5.7-7.6-10.6-7.6c-4.9,0-9.1,3.2-10.6,7.6c-5.9-2.3-10.3-6.2-13-11.6c-3.8-7.6-3.6-17.1-2.8-23.6
			c0.4-2.8,0.8-5.3,1.3-7.4c6.1,7.3,18,11,35.6,11c17.8,0,29.9-3.8,35.9-11.4C130.6,144.3,131.5,149.8,131.3,155.6z"/>
	</g>
	<g>
		<g>
			<g>
				<path class="st2" d="M39.1,50.8c-0.5,0-0.9-0.1-1.3-0.4L4.2,24.1c-0.4-0.3-0.6-0.7-0.7-1.1c-0.1-0.4-0.9-3.6,1-6.1
					c0.8-1.1,2.5-2.4,5.7-2.4c0.1,0,0.2,0,0.3,0c0.5,0,1.1,0.2,1.4,0.6l28.6,29.5c0.4,0.4,0.6,0.9,0.6,1.5v2.7
					c0,0.8-0.5,1.5-1.2,1.9C39.8,50.7,39.5,50.8,39.1,50.8z"/>
			</g>
			<g>
				<path class="st0" d="M10.2,16.6c0.1,0,0.2,0,0.3,0l28.6,29.5v2.7L5.5,22.5C5.5,22.5,4,16.6,10.2,16.6 M10.2,12.4L10.2,12.4
					c-4,0-6.2,1.7-7.3,3.2c-2.5,3.2-1.6,7.2-1.4,7.9c0.2,0.9,0.7,1.7,1.5,2.2L36.6,52c0.7,0.6,1.6,0.9,2.6,0.9
					c0.6,0,1.2-0.1,1.8-0.4c1.4-0.7,2.3-2.2,2.3-3.7v-2.7c0-1.1-0.4-2.1-1.2-2.9L13.5,13.7c-0.8-0.8-1.8-1.2-2.9-1.3
					C10.5,12.4,10.4,12.4,10.2,12.4L10.2,12.4z"/>
			</g>
			<g>
				<path class="st2" d="M39.4,47c-0.7,0-1.4-0.4-1.8-1L16.3,9.4C16,9,15.9,8.4,16,7.9c0.9-3.7,3.3-5.8,6.6-5.8
					c1.7,0,3.1,0.6,3.3,0.7c0.5,0.2,0.9,0.6,1.1,1.1l15.3,36.7c0.2,0.4,0.2,0.9,0.1,1.4l-1,3.5c-0.2,0.8-0.9,1.4-1.7,1.5
					C39.6,47,39.5,47,39.4,47z"/>
			</g>
			<path class="st0" d="M162.6,42.5c-4.2,0-8.2,1-11.7,2.8c-2-8.4-5.4-15.6-10.4-21.3c-4.7-5.4-10.8-9.6-18-12.4
				c-8-3.1-17.7-4.7-28.8-4.7c-20.2,0-35.4,5.8-45.3,17.1c-2.7,3-4.8,6.4-6.6,9.8L29,3c-0.4-1-1.2-1.8-2.2-2.2
				c-0.3-0.1-2-0.8-4.1-0.8c-1.9,0-3.7,0.6-5.1,1.6c-1.8,1.3-3,3.3-3.5,5.8c-0.2,1-0.1,2.1,0.5,3l19.7,33.6c-2.7-1-5.7-1.6-8.8-1.6
				C11.3,42.5,0,53.8,0,67.8c0,14,11.3,25.3,25.3,25.3c4.3,0,8.4-1.1,12-3c1.5,4.3,4.9,8,10.2,11c4.9,2.8,11.4,5,19.4,6.6
				c13.4,2.7,26.3,2.8,26.8,2.8c0,0,0,0,0,0c0.5,0,13.4-0.1,26.8-2.8c8-1.6,14.5-3.8,19.4-6.6c5.4-3.1,8.9-6.8,10.3-11.2
				c3.7,2.1,7.9,3.3,12.4,3.3c14,0,25.3-11.3,25.3-25.3C187.9,53.8,176.6,42.5,162.6,42.5z M22.7,4.2c1.4,0,2.5,0.5,2.5,0.5
				l14.3,34.5c-0.5,1.2-0.9,2.4-1.2,3.7L18.1,8.4C18.9,4.9,21,4.2,22.7,4.2z"/>
		</g>
		<path class="st3" d="M40.7,86.3l0.1,0.4c1.3,9.8,15.4,14.6,26.9,16.9c12.9,2.6,25.7,2.7,26,2.7c0.4,0,13.1-0.1,26-2.7
			c11.5-2.3,25.6-7.2,26.9-16.9l0.1-0.6c1-6.9,2.5-17.5,1.8-28.5c-6.9,1.8-21,3.5-21,3.5l-3.4-7.7l-1.2,8.2
			c-11.6,1.8-24.4,1.8-24.4,1.8l-4.6-14.6l-4.6,14.6c0,0-12.8,0-24.4-1.8l-1.2-8.2L60.1,61c0,0-13.5-1.6-20.5-3.3
			C38.4,69.8,40,80.9,40.7,86.3z"/>
		<g>
			<g>
				<path class="st0" d="M130.9,79.6c-1.3,0-2.4-1.1-2.4-2.4c0-2-1.6-3.7-3.7-3.7c-2,0-3.7,1.6-3.7,3.7c0,1.3-1.1,2.4-2.4,2.4
					c-1.3,0-2.4-1.1-2.4-2.4c0-4.7,3.8-8.4,8.4-8.4c4.7,0,8.4,3.8,8.4,8.4C133.3,78.6,132.3,79.6,130.9,79.6z"/>
			</g>
			<g>
				<path class="st0" d="M69.1,79.6c-1.3,0-2.4-1.1-2.4-2.4c0-2-1.6-3.7-3.7-3.7c-2,0-3.7,1.6-3.7,3.7c0,1.3-1.1,2.4-2.4,2.4
					c-1.3,0-2.4-1.1-2.4-2.4c0-4.7,3.8-8.4,8.4-8.4c4.7,0,8.4,3.8,8.4,8.4C71.4,78.6,70.4,79.6,69.1,79.6z"/>
			</g>
		</g>
		<g>
			<path class="st0" d="M93.9,97.2c-5.9,0-8.9-3-10.4-5.5c-1.5-2.6-1.7-5.2-1.7-5.4c0-0.7,0.2-1.3,0.6-1.8c0.4-0.5,1.1-0.7,1.7-0.7
				h19.6c0.7,0,1.3,0.3,1.7,0.7c0.4,0.5,0.7,1.1,0.6,1.8c0,0.3-0.2,2.8-1.7,5.4C102.9,94.2,99.9,97.2,93.9,97.2z M87.2,88.5
				c0.1,0.3,0.3,0.6,0.5,0.9c1.3,2.1,3.3,3.1,6.3,3.1c2.9,0,5-1,6.3-3.1c0.2-0.3,0.3-0.6,0.5-0.9H87.2z"/>
			<path class="st1" d="M87.2,88.5c0.1,0.3,0.3,0.6,0.5,0.9c1.3,2.1,3.3,3.1,6.3,3.1c2.9,0,5-1,6.3-3.1c0.2-0.3,0.3-0.6,0.5-0.9
				H87.2z"/>
		</g>
	</g>
</g>
</svg>
