<?xml version="1.0" encoding="utf-8"?>
<!-- Generator: Adobe Illustrator 21.1.0, SVG Export Plug-In . SVG Version: 6.00 Build 0)  -->
<svg version="1.1" id="Capa_1" xmlns="http://www.w3.org/2000/svg" xmlns:xlink="http://www.w3.org/1999/xlink" x="0px" y="0px"
	 viewBox="0 0 753.2 753.2" style="enable-background:new 0 0 753.2 753.2;" xml:space="preserve">
<g>
	<g id="_x34__19_">
		<g>
			<path d="M494.3,659.1c13,0,23.5-10.5,23.5-23.5V353.1c0-13-10.5-23.5-23.5-23.5s-23.5,10.5-23.5,23.5v282.5
				C470.8,648.5,481.3,659.1,494.3,659.1z M635.5,94.2H494.3V47.1c0-26-21.1-47.1-47.1-47.1H306c-26,0-47.1,21.1-47.1,47.1v47.1
				H117.7c-26,0-47.1,21.1-47.1,47.1v47.1c0,26,21.1,47.1,47.1,47.1v423.7c0,52,42.2,94.2,94.2,94.2h329.5c52,0,94.2-42.2,94.2-94.2
				V235.4c26,0,47.1-21.1,47.1-47.1v-47.1C682.6,115.2,661.5,94.2,635.5,94.2z M306,70.6c0-13,10.5-23.5,23.5-23.5h94.2
				c13,0,23.5,10.5,23.5,23.5v23.5c-22.8,0-141.2,0-141.2,0V70.6z M588.5,659.1c0,26-21.1,47.1-47.1,47.1H211.8
				c-26,0-47.1-21.1-47.1-47.1V235.4h423.7V659.1z M612,188.3H141.2c-13,0-23.5-10.5-23.5-23.5s10.5-23.5,23.5-23.5H612
				c13,0,23.5,10.5,23.5,23.5S625,188.3,612,188.3z M258.9,659.1c13,0,23.5-10.5,23.5-23.5V353.1c0-13-10.5-23.5-23.5-23.5
				s-23.5,10.5-23.5,23.5v282.5C235.4,648.5,245.9,659.1,258.9,659.1z M376.6,659.1c13,0,23.5-10.5,23.5-23.5V353.1
				c0-13-10.5-23.5-23.5-23.5s-23.5,10.5-23.5,23.5v282.5C353.1,648.5,363.6,659.1,376.6,659.1z"/>
		</g>
	</g>
</g>
</svg>
